<?xml version="1.0" standalone="no"?>
<!DOCTYPE svg PUBLIC "-//W3C//DTD SVG 20010904//EN"
 "http://www.w3.org/TR/2001/REC-SVG-20010904/DTD/svg10.dtd">
<svg version="1.0" xmlns="http://www.w3.org/2000/svg"
 width="1152.000000pt" height="1152.000000pt" viewBox="0 0 1152.000000 1152.000000"
 preserveAspectRatio="xMidYMid meet">

<g transform="translate(0.000000,1152.000000) scale(0.100000,-0.100000)"
fill="#000000" stroke="none">
<path d="M0 5760 l0 -5760 5760 0 5760 0 0 5760 0 5760 -5760 0 -5760 0 0
-5760z m6140 5226 c206 -11 688 -66 755 -87 17 -5 53 -11 80 -14 48 -6 162
-28 310 -60 39 -9 84 -18 100 -22 17 -3 36 -10 43 -16 6 -5 12 -7 12 -4 0 3
15 1 33 -4 17 -6 39 -12 47 -14 82 -18 217 -58 224 -66 6 -5 18 -9 27 -9 33 0
247 -75 489 -171 214 -85 636 -302 809 -415 183 -120 415 -300 522 -405 75
-74 101 -124 125 -239 14 -72 15 -102 5 -229 -10 -137 -33 -287 -48 -321 -4
-8 -8 -22 -9 -30 -1 -8 -10 -42 -19 -75 -19 -70 -68 -265 -95 -380 -10 -44
-24 -100 -30 -125 -6 -25 -13 -56 -15 -70 -2 -14 -13 -70 -25 -125 -38 -183
-81 -460 -125 -805 -15 -119 -42 -415 -50 -555 -5 -97 -7 -844 -1 -853 8 -14
21 -314 21 -484 0 -97 3 -174 8 -171 4 2 7 -5 7 -16 0 -12 -4 -21 -10 -21 -6
0 -10 -55 -9 -147 1 -99 4 -138 10 -118 8 29 8 29 4 -5 -3 -19 -5 -88 -4 -152
0 -117 -2 -124 -33 -119 -5 0 -8 -4 -8 -10 0 -6 7 -8 16 -5 14 5 15 -6 9 -111
-10 -187 -54 -561 -91 -773 -24 -140 -80 -365 -96 -386 -4 -6 -5 -13 -2 -17 3
-3 -1 -18 -9 -34 -8 -15 -25 -61 -37 -102 -15 -52 -25 -70 -31 -60 -12 20 -11
63 2 76 6 6 11 27 11 47 0 19 6 40 14 47 21 17 17 28 -8 21 -21 -5 -22 -4 -6
11 9 9 19 36 23 59 4 24 12 52 18 63 12 22 16 38 20 100 2 22 11 55 21 74 10
18 15 43 12 55 -3 13 -1 38 4 57 6 19 12 56 15 83 2 27 8 52 12 55 4 3 9 33
10 66 1 33 11 87 22 119 15 43 18 62 10 67 -6 4 -9 11 -5 17 3 6 8 61 11 124
8 193 16 258 31 258 15 0 17 32 16 270 0 86 3 129 9 120 6 -11 8 -6 4 15 -2
17 -7 111 -10 209 -3 99 -9 182 -14 185 -23 16 -53 498 -57 901 -1 146 -5 309
-8 363 -5 65 -3 97 4 97 5 0 10 18 10 40 0 22 5 40 10 40 6 0 10 26 10 58 0
80 22 262 32 262 4 0 8 18 8 40 0 22 -4 40 -10 40 -5 0 -10 18 -10 40 0 22 5
40 10 40 6 0 10 17 10 38 0 21 3 42 7 46 4 4 6 39 4 78 -2 44 1 73 8 77 6 4
13 30 15 57 8 109 30 259 38 265 5 3 11 30 14 60 12 146 27 254 35 257 5 2 9
21 9 43 0 28 4 39 15 39 8 0 16 8 16 18 1 9 3 28 5 42 3 14 7 50 10 80 7 81
13 100 29 100 13 0 14 13 9 82 -7 78 -6 81 13 76 16 -4 19 -1 15 17 -2 13 1
32 7 43 8 15 8 21 -1 24 -8 3 -7 11 5 28 9 14 17 34 17 46 0 12 7 38 15 57 8
20 15 53 15 73 0 34 1 36 28 30 18 -4 22 -4 13 3 -10 6 -12 19 -6 47 14 74 15
103 5 109 -6 4 -5 16 4 33 17 33 15 236 -3 269 -8 16 -8 22 2 26 27 10 -80
157 -115 157 -9 0 -24 12 -34 28 -21 32 -40 52 -49 52 -4 0 -20 13 -36 29 -30
30 -37 51 -18 51 5 0 7 5 3 11 -5 8 -9 8 -14 -1 -5 -9 -16 -8 -44 4 -31 13
-36 13 -36 0 0 -10 -12 -14 -40 -14 l-40 0 0 -40 c0 -22 -4 -40 -10 -40 -5 0
-10 18 -10 40 0 22 4 40 9 40 5 0 11 19 12 43 l4 42 -42 -4 c-38 -3 -43 -1
-43 18 0 12 5 21 10 21 19 0 10 15 -38 66 -26 28 -66 59 -89 70 -31 14 -43 25
-43 42 0 16 -6 22 -21 22 -11 0 -28 8 -37 17 -16 16 -17 15 -20 -1 -3 -14 -11
-9 -39 21 -45 47 -116 83 -167 83 -35 0 -38 2 -34 23 4 20 1 23 -19 19 -16 -3
-23 0 -23 11 0 18 -21 27 -67 27 -27 0 -34 3 -29 15 3 9 0 15 -10 15 -8 0 -13
3 -11 8 3 4 -15 5 -40 3 -41 -3 -47 0 -83 39 -22 24 -37 47 -34 51 3 5 -6 5
-20 -1 -17 -6 -27 -6 -32 1 -3 6 -12 8 -20 5 -8 -3 -14 1 -14 8 0 17 -17 24
-52 20 -22 -2 -28 2 -28 17 0 13 -7 19 -22 19 -13 0 -47 9 -76 20 -29 11 -72
20 -97 20 -25 0 -45 5 -45 10 0 6 -18 10 -40 10 -22 0 -40 4 -40 8 0 18 -61
42 -109 42 -39 0 -51 4 -51 15 0 11 -11 15 -39 15 -22 0 -41 4 -43 9 -1 6 -23
11 -48 12 -25 1 -54 8 -65 16 -11 7 -43 13 -71 13 -42 0 -53 4 -56 18 -3 14
-24 20 -123 33 -81 10 -119 19 -118 27 3 14 -23 16 -31 3 -3 -5 -18 -11 -33
-14 -21 -4 -33 2 -60 30 -23 25 -33 31 -33 19 0 -18 -22 -20 -107 -10 -30 4
-53 12 -53 19 0 11 -201 37 -392 51 -61 4 -88 10 -92 20 -9 23 -67 18 -73 -6
-8 -28 -83 -30 -83 -1 0 32 -24 42 -87 38 -32 -3 -66 -8 -77 -12 -10 -5 -95
-5 -190 -1 -94 5 -175 8 -181 8 -5 0 -75 -3 -155 -7 -80 -4 -174 -8 -210 -10
-136 -3 -295 -18 -301 -28 -4 -5 -63 -10 -134 -11 -109 -1 -128 -4 -136 -19
-8 -13 -24 -17 -72 -17 -35 0 -67 -4 -72 -9 -6 -5 -73 -17 -150 -26 -77 -9
-156 -23 -175 -31 -19 -8 -53 -14 -75 -14 -58 2 -145 -11 -145 -21 0 -5 6 -9
13 -9 34 -1 -93 -50 -130 -50 -25 0 -43 -5 -43 -11 0 -8 -14 -10 -40 -6 -30 4
-40 2 -40 -9 0 -10 -12 -14 -39 -14 -26 0 -41 -5 -45 -16 -3 -8 -10 -13 -15
-9 -5 3 -13 0 -17 -6 -3 -6 -20 -9 -38 -6 -17 3 -25 3 -18 0 25 -10 10 -23
-28 -23 -22 0 -40 -4 -40 -10 0 -5 -18 -10 -40 -10 -29 0 -40 -4 -40 -15 0
-18 -41 -29 -76 -21 -15 4 -23 3 -20 -3 4 -5 -10 -26 -29 -47 -24 -25 -35 -32
-35 -20 0 20 -20 21 -46 1 -10 -8 -29 -15 -40 -15 -12 0 -28 -10 -36 -21 -7
-12 -23 -22 -33 -23 -42 -4 -95 -19 -101 -27 -3 -5 0 -9 5 -9 6 0 11 -4 11
-10 0 -5 -18 -10 -40 -10 -22 0 -40 -4 -40 -10 0 -5 6 -7 14 -4 8 3 17 1 20
-4 3 -5 -6 -8 -19 -6 -43 4 -122 -27 -134 -53 -9 -21 -22 -28 -43 -24 -4 0
-20 -4 -35 -10 -15 -6 -44 -11 -63 -11 -35 0 -35 0 -7 -10 15 -5 27 -13 27
-18 0 -11 -57 -23 -70 -15 -5 3 -10 2 -10 -3 0 -10 -58 -36 -72 -33 -5 0 -8
-8 -8 -18 0 -14 -11 -23 -37 -32 -21 -6 -40 -15 -43 -18 -11 -13 -51 -31 -70
-31 -16 0 -19 -5 -16 -26 4 -19 1 -24 -9 -20 -8 3 -21 -1 -29 -9 -20 -21 -50
-20 -42 1 6 15 4 15 -10 3 -10 -8 -12 -15 -5 -17 18 -6 13 -19 -24 -58 -29
-30 -35 -33 -36 -18 -1 17 -2 17 -6 2 -2 -10 -13 -18 -23 -18 -10 0 -27 -11
-38 -25 -11 -13 -22 -22 -25 -19 -3 3 -8 -4 -12 -15 -4 -14 -15 -21 -31 -21
-13 0 -24 -6 -24 -13 0 -12 -53 -67 -65 -67 -10 0 -54 -54 -55 -67 0 -7 -9
-13 -20 -13 -11 0 -20 -5 -20 -11 0 -6 -9 -23 -19 -38 -13 -18 -18 -39 -16
-69 2 -24 -1 -42 -7 -42 -6 0 -8 -46 -5 -132 7 -187 16 -260 34 -273 12 -9 15
-28 12 -92 -2 -45 -1 -76 3 -70 9 15 58 -90 58 -125 0 -15 4 -28 10 -28 5 0 9
-36 9 -82 0 -54 -3 -77 -9 -68 -6 8 -10 11 -10 5 0 -5 5 -17 10 -25 6 -10 10
-11 10 -2 0 6 5 12 10 12 6 0 10 -18 10 -40 0 -43 16 -55 23 -17 2 12 6 3 7
-23 3 -51 3 -46 14 -157 6 -61 12 -83 22 -83 10 0 14 -12 14 -40 0 -22 4 -40
8 -40 5 0 15 -53 22 -117 7 -65 17 -124 23 -131 12 -15 2 -95 -12 -100 -6 -2
-11 -16 -10 -30 0 -23 3 -21 17 16 9 23 19 42 23 42 9 0 25 -154 21 -199 -2
-19 2 -37 8 -41 7 -4 14 -53 17 -121 3 -63 10 -117 16 -120 8 -6 4 -96 -7
-142 -1 -7 -1 -9 1 -5 3 4 12 1 21 -8 13 -13 16 -38 15 -130 0 -63 4 -114 9
-114 4 0 8 -54 8 -120 0 -73 4 -120 10 -120 6 0 10 -33 10 -80 0 -47 4 -80 10
-80 6 0 10 -33 10 -80 0 -47 4 -80 10 -80 6 0 10 -33 10 -80 0 -44 -4 -80 -9
-80 -5 0 -11 -84 -15 -187 -3 -104 -10 -235 -15 -293 -6 -58 -13 -153 -17
-212 -4 -60 -11 -108 -16 -108 -6 0 -8 -53 -4 -137 16 -383 18 -503 7 -503 -6
0 -11 -17 -11 -40 0 -22 5 -40 10 -40 6 0 10 -33 10 -80 0 -47 -4 -80 -10 -80
-5 0 -10 -18 -10 -40 0 -22 5 -40 10 -40 6 0 10 -26 10 -59 0 -102 12 -181 26
-181 16 0 20 -76 5 -82 -9 -3 -15 -61 -11 -103 2 -17 3 -17 11 5 6 20 8 15 7
-25 -1 -82 2 -115 10 -114 24 4 27 -10 27 -139 0 -95 4 -143 13 -157 12 -18
12 -17 7 12 -3 17 -2 34 3 37 6 3 10 -9 10 -29 0 -19 -4 -38 -9 -41 -5 -3 -9
-11 -9 -17 0 -7 4 -6 10 3 7 11 10 4 10 -25 0 -29 -3 -36 -10 -25 -14 22 -13
-6 1 -32 10 -19 22 -148 14 -148 -12 0 -68 226 -60 241 4 5 0 21 -8 36 -22 40
-68 293 -72 394 -1 25 -4 50 -7 55 -11 17 -22 139 -22 229 0 52 -3 79 -7 65
-5 -18 -7 -12 -7 25 -1 34 2 44 7 30 7 -16 9 -13 12 17 3 20 1 34 -3 32 -4 -3
-8 7 -8 23 0 22 -2 25 -10 13 -8 -11 -11 6 -11 60 -2 137 -7 303 -14 440 -6
112 2 416 20 760 2 30 5 236 7 457 1 221 7 396 11 390 5 -7 6 -3 2 8 -9 24
-26 254 -28 388 -1 54 -5 88 -8 75 -5 -17 -7 -13 -8 17 0 49 -7 102 -17 134
-5 17 -4 22 4 17 7 -4 12 -3 12 3 0 5 -4 11 -9 13 -5 2 -11 26 -14 53 -23 190
-84 591 -112 730 -9 44 -18 91 -21 105 -2 14 -8 41 -13 60 -6 19 -22 89 -36
155 -27 122 -36 162 -41 180 -2 6 -14 53 -28 105 -13 52 -32 122 -41 155 -27
96 -46 177 -51 219 -3 22 -7 43 -9 46 -11 18 -16 284 -6 350 15 96 41 172 58
166 7 -3 10 1 6 11 -7 19 109 133 252 245 55 44 107 84 115 91 49 38 89 66
117 80 17 9 37 22 45 30 37 36 321 198 513 293 252 124 357 169 570 246 197
70 521 170 590 182 11 2 27 6 36 10 9 4 27 8 40 10 13 2 42 8 64 13 44 12 176
41 215 47 14 3 61 12 105 20 44 9 88 13 97 10 10 -3 18 -1 18 4 0 5 44 15 98
22 53 7 111 14 127 16 168 22 283 35 350 39 44 3 127 9 185 14 102 8 568 6
740 -3z m420 -466 l0 -40 40 0 c22 0 40 -4 40 -10 0 -6 33 -10 80 -10 47 0 80
-4 80 -10 0 -5 18 -10 40 -10 29 0 40 -4 40 -15 0 -11 12 -16 43 -17 23 -1 53
-3 67 -4 14 -1 35 -3 48 -3 13 -1 20 -5 17 -11 -3 -5 1 -10 10 -10 9 0 13 5
10 10 -3 6 5 10 19 10 16 0 27 -7 31 -19 7 -22 41 -28 113 -22 33 2 42 7 42
22 0 15 7 19 40 19 l40 0 0 -40 0 -40 51 0 c43 0 56 -4 78 -27 l26 -28 3 28
c3 27 4 27 83 27 l79 0 0 -40 c0 -27 -4 -39 -12 -37 -7 1 -13 -5 -13 -13 0
-12 11 -14 50 -11 28 1 52 7 53 12 5 13 32 11 32 -2 0 -7 10 -9 25 -7 23 5 25
2 25 -28 0 -29 4 -34 23 -34 13 0 32 -9 42 -20 12 -13 31 -20 57 -20 31 0 38
-4 38 -19 0 -10 8 -21 18 -25 9 -3 25 -11 35 -18 14 -11 23 -10 48 5 19 10 52
17 85 17 l54 0 0 -40 c0 -31 -4 -40 -17 -40 -14 0 -14 -2 2 -20 12 -13 31 -20
57 -20 31 0 38 -3 38 -20 0 -13 7 -20 19 -20 10 0 30 -9 44 -20 14 -11 34 -20
45 -20 31 0 52 -11 52 -26 0 -8 10 -14 22 -14 12 0 30 -7 40 -17 17 -15 18
-15 18 2 0 13 8 9 35 -19 19 -21 32 -42 29 -48 -4 -6 1 -8 15 -3 16 5 29 -1
51 -24 31 -31 37 -47 20 -53 -6 -1 30 -1 80 0 l90 4 0 -40 c0 -43 -12 -54 -52
-46 -21 5 -21 4 -4 -6 12 -8 25 -9 40 -2 17 8 26 4 54 -25 17 -19 32 -38 32
-42 0 -5 11 -6 25 -3 32 6 65 -22 65 -55 0 -12 5 -23 11 -23 5 0 8 -4 5 -9 -3
-5 6 -12 20 -15 16 -4 29 -17 36 -37 9 -26 14 -30 34 -25 26 7 31 -3 12 -23
-11 -11 -8 -12 15 -7 28 7 28 7 11 -19 -16 -24 -16 -25 2 -18 17 6 17 5 1 -17
-20 -29 -22 -56 -4 -63 6 -3 2 -4 -10 -4 -13 1 -23 1 -23 2 0 0 4 15 9 32 9
30 -2 58 -12 31 -2 -7 -2 -3 0 10 4 22 -19 67 -29 57 -3 -3 -21 7 -40 22 -19
16 -50 39 -68 53 -18 14 -38 30 -45 35 -6 6 -18 15 -27 20 -8 6 -57 38 -107
73 -50 34 -96 62 -101 62 -6 0 -10 4 -10 8 0 5 -10 14 -22 21 -13 6 -41 22
-63 36 -22 13 -48 27 -57 31 -10 3 -15 10 -12 15 3 5 -1 7 -8 4 -7 -2 -31 7
-53 20 -68 42 -417 211 -475 230 -46 15 -51 20 -35 27 15 6 13 7 -8 3 -17 -3
-35 0 -44 7 -8 7 -22 13 -30 14 -9 2 -39 13 -67 25 -28 12 -100 39 -159 59
-59 21 -102 40 -95 43 7 2 0 4 -17 4 -32 1 -45 4 -88 21 -16 7 -33 12 -38 12
-5 0 -58 13 -117 30 -107 30 -317 79 -360 84 -12 1 -25 6 -29 9 -3 4 -16 7
-27 7 -50 0 -198 33 -185 41 9 6 2 7 -18 3 -17 -3 -69 -1 -115 5 -139 18 -163
21 -285 31 -143 12 -794 12 -1023 1 -94 -5 -166 -5 -168 0 -2 5 -8 9 -13 9 -6
0 -7 -4 -4 -10 4 -6 -5 -10 -21 -10 -39 0 -314 -40 -349 -50 -16 -5 -59 -12
-95 -15 -36 -3 -74 -10 -85 -14 -11 -5 -67 -19 -124 -31 -94 -20 -105 -21
-113 -6 -6 10 -22 16 -43 16 -29 0 -35 4 -35 21 0 20 4 20 98 16 53 -2 89 -2
80 0 -13 3 -18 15 -18 44 0 39 0 39 40 39 22 0 40 -4 40 -10 0 -5 18 -10 40
-10 23 0 40 5 40 11 0 8 24 9 80 4 l80 -7 0 27 0 27 80 -7 80 -7 0 26 c0 24 4
26 40 26 22 0 40 -4 40 -10 0 -6 33 -10 80 -10 l80 0 0 30 c0 26 3 30 29 30
16 0 32 6 34 13 4 9 8 9 14 1 12 -18 323 -31 323 -14 0 11 92 12 480 7 475 -7
480 -7 480 13 0 17 7 20 40 20 l40 0 0 -40z m617 -146 c-3 -3 -12 -4 -19 -1
-8 3 -5 6 6 6 11 1 17 -2 13 -5z m-2934 -116 c41 -1 56 -3 34 -5 -20 -2 -35
-8 -32 -13 3 -5 1 -11 -5 -15 -5 -3 -10 -2 -10 4 0 6 -23 9 -57 6 -32 -1 -48
-1 -35 2 14 3 22 12 23 26 0 12 3 16 6 10 3 -9 30 -14 76 -15z m-160 -43 c-24
-16 -86 -28 -78 -15 3 6 18 10 33 11 15 0 21 3 15 6 -25 9 -13 19 17 15 28 -4
29 -6 13 -17z m120 -2 c-7 -2 -21 -2 -30 0 -10 3 -4 5 12 5 17 0 24 -2 18 -5z
m-68 -13 c-28 -12 -37 -12 -30 0 3 6 16 10 28 9 21 0 21 -1 2 -9z m-102 -27
c-7 -2 -19 -2 -25 0 -7 3 -2 5 12 5 14 0 19 -2 13 -5z m-198 -23 c-3 -5 -23
-9 -43 -9 l-37 2 40 7 c22 4 41 8 43 9 2 0 0 -3 -3 -9z m92 -16 c-3 -3 -12 -4
-19 -1 -8 3 -5 6 6 6 11 1 17 -2 13 -5z m-147 -14 c0 -5 -4 -10 -10 -10 -5 0
-10 5 -10 10 0 6 5 10 10 10 6 0 10 -4 10 -10z m-310 -44 c0 -2 -7 -9 -15 -16
-12 -10 -15 -10 -15 4 0 9 7 16 15 16 8 0 15 -2 15 -4z m-53 -82 c-3 -3 -12
-4 -19 -1 -8 3 -5 6 6 6 11 1 17 -2 13 -5z m2683 -20 c63 -8 167 -27 230 -41
114 -26 356 -98 375 -113 6 -4 28 -13 50 -20 111 -35 494 -253 570 -324 l40
-38 -35 -17 c-53 -26 -144 -75 -150 -81 -3 -3 -22 -14 -42 -25 -21 -11 -38
-22 -38 -26 0 -3 -12 -11 -27 -18 -34 -15 -137 -83 -141 -93 -2 -5 -10 -8 -17
-8 -7 0 -15 -3 -17 -8 -1 -4 -41 -33 -88 -64 -47 -31 -98 -68 -115 -82 -16
-14 -38 -29 -47 -32 -9 -3 -32 -19 -51 -37 -36 -35 -282 -223 -356 -273 -25
-17 -86 -52 -135 -78 l-89 -48 -134 18 c-129 17 -138 17 -261 0 -123 -18 -130
-18 -163 -1 -70 36 -167 104 -253 178 -49 42 -123 102 -165 134 -42 32 -80 63
-86 69 -13 15 -273 202 -340 244 -13 8 -81 50 -152 93 -70 43 -135 83 -143 88
-8 5 -48 26 -87 45 -40 20 -73 38 -73 41 0 19 223 164 375 243 181 94 323 149
555 213 129 36 342 69 520 81 103 7 375 -4 490 -20z m-2640 12 c0 -2 -7 -7
-16 -10 -8 -3 -12 -2 -9 4 6 10 25 14 25 6z m-60 -20 c0 -2 -7 -6 -15 -10 -8
-3 -15 -1 -15 4 0 6 7 10 15 10 8 0 15 -2 15 -4z m-76 -55 c4 -5 -3 -7 -14 -4
-23 6 -26 13 -6 13 8 0 17 -4 20 -9z m-253 -19 c-7 -2 -18 1 -23 6 -8 8 -4 9
13 5 13 -4 18 -8 10 -11z m167 2 c12 -8 20 -20 17 -25 -8 -12 -55 -12 -55 1 0
6 11 8 25 4 33 -8 32 2 -2 20 -16 8 -23 15 -18 16 6 0 21 -7 33 -16z m-168
-24 c0 -5 -7 -10 -15 -10 -8 0 -15 5 -15 10 0 6 7 10 15 10 8 0 15 -4 15 -10z
m117 -36 c-1 -1 -38 -21 -82 -44 -82 -45 -156 -86 -210 -116 -16 -9 -70 -44
-119 -76 -69 -46 -91 -57 -98 -46 -8 10 -9 9 -5 -4 7 -20 -17 -43 -35 -32 -7
4 -10 4 -6 -1 7 -7 -186 -160 -233 -186 -16 -8 -19 -19 -17 -59 2 -26 6 -46
10 -43 5 2 8 -1 8 -6 0 -6 0 -13 0 -16 1 -3 12 -35 26 -72 16 -41 23 -77 19
-92 -3 -15 -2 -21 3 -14 7 11 22 -40 67 -229 9 -38 13 -85 10 -105 -4 -28 -3
-33 4 -18 8 17 10 14 10 -18 1 -21 8 -54 16 -74 10 -23 13 -49 9 -66 -4 -20
-3 -27 5 -23 7 5 11 -4 10 -26 -1 -30 -2 -31 -8 -8 -7 23 -8 23 -15 -12 l-7
-38 -30 31 c-17 18 -27 34 -21 38 14 9 21 102 9 129 -9 18 -8 26 4 34 12 8 11
9 -3 5 -10 -4 -18 1 -21 15 -4 14 -11 19 -21 15 -9 -4 -15 -3 -15 1 3 19 -2
26 -10 13 -7 -11 -11 -9 -20 8 -11 19 -9 21 21 21 29 0 30 1 14 13 -14 10 -18
26 -17 73 0 32 2 68 3 79 4 24 -33 28 -44 5 -6 -11 -7 -10 -5 5 2 11 9 19 15
18 7 -2 12 2 12 7 0 6 -6 10 -12 10 -10 0 -10 2 0 9 11 7 11 9 -2 14 -11 4
-16 19 -16 47 0 33 -3 40 -20 40 -18 0 -20 7 -20 63 0 43 -6 74 -20 100 -22
41 -25 57 -10 57 6 0 10 -7 10 -16 0 -8 5 -12 10 -9 7 4 7 13 0 26 -6 10 -7
19 -3 19 4 0 2 4 -6 9 -8 5 -10 14 -5 22 4 7 9 24 10 37 3 30 3 29 39 34 50 5
85 58 39 58 -8 0 -14 9 -14 20 0 17 7 20 40 20 22 0 40 3 40 8 0 8 49 32 67
32 7 0 13 9 13 21 0 15 5 20 23 17 18 -2 21 1 19 20 -3 20 0 23 20 20 14 -2
23 -9 22 -20 -1 -14 2 -15 18 -5 15 10 16 13 4 15 -11 3 -8 11 14 32 17 16 36
27 44 24 8 -3 28 2 45 10 16 9 38 16 47 16 16 0 16 -1 -2 -14 -10 -8 -16 -17
-13 -20 3 -4 17 2 30 13 l24 19 -27 7 c-40 10 -34 21 13 22 31 2 40 -1 35 -12
-3 -9 0 -12 9 -8 8 3 13 9 10 14 -7 10 27 29 54 29 11 0 22 4 25 9 9 13 -78 0
-86 -13 -5 -7 -8 -5 -8 5 0 27 22 37 70 32 62 -5 90 3 90 27 0 11 10 25 22 31
22 12 22 12 3 19 -11 4 12 7 52 6 39 0 71 -1 70 -2z m5607 -129 c-4 -8 -8 -15
-10 -15 -2 0 -4 7 -4 15 0 8 4 15 10 15 5 0 7 -7 4 -15z m-4859 -192 c395
-156 853 -456 1340 -876 48 -41 94 -72 119 -79 52 -14 65 -25 40 -34 -10 -4
-68 -29 -129 -57 l-110 -49 -24 33 c-66 89 -194 196 -661 548 -233 175 -301
222 -417 280 -151 75 -267 104 -340 85 -47 -13 -38 -123 20 -239 37 -76 221
-381 300 -500 103 -154 373 -507 417 -545 4 -3 41 -47 84 -99 140 -171 411
-466 661 -720 437 -444 771 -767 1005 -973 311 -272 484 -412 665 -538 50 -35
117 -82 150 -105 255 -179 550 -323 669 -328 l51 -2 3 54 c8 134 -60 304 -220
551 -133 205 -469 649 -585 771 l-34 36 120 1 119 2 49 -58 c185 -215 535
-736 649 -962 60 -120 99 -312 83 -412 -11 -69 -50 -131 -95 -153 -34 -16 -42
-16 -123 -1 -299 55 -668 252 -1113 593 -398 306 -634 521 -1258 1149 -471
474 -596 606 -775 814 -55 63 -102 117 -105 120 -3 3 -37 43 -75 90 -38 47
-72 87 -76 90 -37 31 -337 433 -458 614 -273 406 -359 663 -278 828 61 123
150 142 332 71z m3916 4 c112 -60 128 -250 39 -473 -72 -183 -249 -471 -455
-741 -309 -407 -584 -726 -1028 -1195 l-139 -147 -114 -3 c-63 -2 -114 0 -114
5 0 4 15 22 33 40 109 110 531 571 692 757 50 58 122 141 160 185 356 405 723
910 841 1158 38 81 61 186 51 229 -8 30 -30 38 -108 38 -111 0 -265 -68 -484
-215 -236 -158 -628 -471 -817 -652 l-86 -83 -34 14 c-120 51 -209 95 -210
102 0 5 20 15 44 22 67 21 77 27 225 144 424 338 831 610 1123 753 135 65 192
83 276 84 46 1 72 -5 105 -22z m-5498 -84 c-7 -2 -13 -15 -13 -28 0 -13 -4
-27 -10 -30 -11 -7 -13 24 -4 49 3 9 14 16 23 15 10 0 11 -2 4 -6z m54 -10 c2
-6 -2 -13 -10 -16 -8 -3 -13 3 -14 15 -2 20 18 21 24 1z m6703 7 c24 -15 7
-18 -20 -3 -14 7 -18 13 -10 13 8 0 22 -4 30 -10z m-1519 -177 c24 -21 65 -59
92 -84 43 -42 46 -49 38 -72 -14 -35 -144 -250 -190 -312 -20 -27 -45 -63 -55
-80 -36 -57 -210 -285 -218 -285 -4 0 -8 -7 -8 -15 0 -8 -24 -43 -53 -77 -29
-35 -87 -106 -129 -158 -42 -52 -94 -114 -115 -137 -38 -40 -43 -43 -94 -43
-30 0 -85 3 -123 7 l-68 6 -25 55 c-53 120 -174 272 -255 320 -16 9 -27 22
-26 28 3 13 176 174 228 212 33 24 151 124 195 166 11 10 36 28 55 41 19 12
67 49 106 81 39 32 81 66 94 74 12 8 44 32 70 53 26 20 50 37 53 37 3 0 48 29
100 65 52 36 100 65 105 65 6 0 12 4 14 9 3 10 137 80 154 81 6 0 31 -17 55
-37z m-3611 12 c0 -9 6 -15 13 -14 6 1 25 -3 40 -9 41 -17 58 -14 18 4 -19 8
-32 16 -29 19 7 7 134 -56 203 -101 50 -33 131 -92 182 -134 7 -5 52 -39 100
-76 48 -36 103 -78 122 -92 18 -15 51 -38 71 -52 57 -37 190 -140 304 -235 66
-55 110 -100 126 -130 l25 -46 -35 -27 c-106 -82 -200 -202 -250 -318 l-21
-51 -61 -7 c-34 -3 -87 -6 -119 -6 l-57 0 -105 123 c-58 68 -128 154 -156 193
-28 38 -57 76 -64 84 -20 23 -165 228 -182 258 -5 9 -24 37 -41 62 -17 25 -53
83 -79 130 -27 47 -56 94 -66 105 -9 11 -29 43 -44 70 -15 28 -37 68 -50 89
l-23 39 46 48 c42 42 104 86 125 88 4 1 7 -6 7 -14z m5217 -37 c-3 -7 -5 -2
-5 12 0 14 2 19 5 13 2 -7 2 -19 0 -25z m-65 -42 c7 4 8 2 4 -5 -4 -6 -12 -9
-17 -6 -5 4 -9 -2 -9 -11 0 -10 -2 -15 -5 -12 -4 3 -3 19 2 34 5 21 8 24 11
11 2 -9 8 -14 14 -11z m-6793 -63 c2 -2 -5 -3 -17 -3 -14 0 -22 6 -22 16 0 14
3 15 18 3 9 -7 19 -15 21 -16z m6778 -15 c-3 -18 -9 -42 -13 -52 -4 -12 -4
-17 2 -13 10 6 8 -55 -3 -83 -3 -8 -5 -24 -5 -35 l2 -20 -9 20 c-5 11 -5 24 0
30 14 14 11 68 -3 59 -7 -5 -9 -1 -6 12 3 10 12 40 19 67 15 54 24 62 16 15z
m-32 -37 c-4 -17 -10 -31 -15 -31 -4 0 -3 16 3 35 13 42 22 39 12 -4z m-6 -89
c0 -24 -1 -25 -9 -7 -5 12 -9 14 -9 6 -1 -8 -4 -12 -7 -8 -9 9 6 48 17 42 5
-4 9 -18 8 -33z m-5419 -78 c0 -8 5 -14 10 -14 6 0 10 -5 10 -10 0 -6 18 -40
40 -76 22 -36 40 -68 40 -70 0 -4 142 -217 150 -224 3 -3 21 -27 40 -55 19
-27 38 -54 42 -60 5 -5 38 -50 74 -100 35 -49 82 -110 102 -134 20 -25 59 -74
86 -110 27 -36 62 -81 77 -99 16 -18 29 -34 29 -35 0 -1 -53 -2 -118 -3 -165
-2 -483 -39 -637 -74 -138 -32 -252 -62 -270 -70 -46 -21 -206 -72 -211 -67
-13 12 61 335 107 470 87 254 216 514 324 652 17 22 39 53 49 69 14 22 20 26
27 15 7 -11 9 -10 9 4 0 10 5 15 10 12 6 -3 10 -13 10 -21z m4311 -111 c58
-88 189 -317 189 -331 0 -2 20 -51 45 -107 78 -179 142 -407 170 -602 l6 -42
-63 25 c-34 13 -68 24 -75 24 -8 0 -11 5 -7 12 4 6 3 8 -3 5 -6 -4 -38 2 -71
13 -57 19 -159 46 -212 57 -103 20 -176 36 -183 40 -4 3 -31 6 -60 8 -29 2
-124 10 -211 19 -88 9 -192 16 -233 16 -74 0 -86 7 -57 31 9 7 44 47 77 89 34
41 64 77 67 80 12 10 167 216 211 280 24 36 47 67 50 70 4 3 29 41 58 85 28
44 54 85 59 90 15 18 102 177 122 222 25 57 29 54 121 -84z m1065 21 c-4 -9
-9 -15 -11 -12 -3 3 -3 13 1 22 4 9 9 15 11 12 3 -3 3 -13 -1 -22z m-29 -46
c-3 -7 -5 -2 -5 12 0 14 2 19 5 13 2 -7 2 -19 0 -25z m32 -68 c0 -9 -4 -8 -9
5 -5 11 -9 27 -9 35 0 9 4 8 9 -5 5 -11 9 -27 9 -35z m-29 -9 c0 -32 -6 -24
-14 19 -4 25 -3 31 4 20 5 -8 10 -26 10 -39z m17 -43 c-3 -7 -5 -2 -5 12 0 14
2 19 5 13 2 -7 2 -19 0 -25z m-6547 -53 c0 -19 -4 -35 -10 -35 -5 0 -10 16
-10 35 0 19 5 35 10 35 6 0 10 -16 10 -35z m3393 -114 c17 -7 27 -18 27 -31 0
-11 7 -20 15 -20 9 0 12 6 9 15 -4 9 0 15 7 15 11 0 11 2 -1 10 -20 12 59 1
80 -12 10 -6 3 -8 -22 -5 -21 1 -35 0 -30 -4 11 -10 93 -18 87 -9 -6 9 31 0
75 -18 27 -12 28 -11 -32 -16 -7 -1 -12 4 -11 9 2 17 -109 16 -146 -1 -22 -11
-36 -13 -40 -6 -9 14 -166 35 -210 27 -20 -3 -85 -7 -146 -9 -60 -2 -121 -9
-135 -15 -24 -11 -24 -11 5 -6 43 8 47 8 83 7 27 -2 32 -6 32 -27 0 -22 -4
-25 -40 -25 -33 0 -40 3 -40 19 0 14 -5 18 -20 14 -14 -4 -20 -14 -20 -35 0
-25 -3 -28 -14 -19 -11 9 -15 6 -20 -14 -5 -21 -12 -25 -46 -25 -22 0 -40 -4
-40 -10 0 -5 -17 -10 -37 -10 -26 0 -34 3 -24 9 16 10 6 31 -14 31 -10 0 -13
-10 -10 -35 4 -27 2 -33 -10 -29 -18 7 -19 21 -2 27 6 2 9 7 6 11 -4 4 -20 -5
-35 -19 -16 -15 -22 -25 -13 -22 9 3 22 1 30 -4 11 -8 9 -9 -6 -7 -17 3 -21
-4 -25 -42 -3 -30 -8 -41 -13 -32 -5 7 -6 29 -3 48 5 24 3 34 -5 34 -14 0 62
68 95 86 87 47 108 56 113 51 3 -3 -11 -12 -30 -20 -30 -13 -58 -37 -43 -37
13 0 82 44 97 61 24 28 83 49 121 44 22 -4 27 -3 14 3 -15 7 -12 10 22 20 22
7 60 15 85 18 26 2 65 9 89 14 50 11 152 6 191 -9z m-3291 -70 c7 10 8 7 4
-10 -3 -14 0 -32 7 -40 8 -9 11 -45 9 -102 -2 -71 2 -99 20 -146 18 -48 22
-79 23 -186 0 -85 -3 -117 -8 -95 -5 18 -7 43 -4 56 3 14 -1 26 -9 29 -9 3
-14 20 -14 44 0 21 -5 39 -10 39 -6 0 -10 40 -9 103 0 69 -5 115 -15 142 -18
48 -21 32 -4 -30 8 -28 9 -48 3 -54 -6 -6 -11 5 -12 32 -1 23 -6 43 -12 45 -7
2 -10 34 -9 85 1 71 2 76 8 37 l7 -45 3 40 c1 22 2 49 2 60 -1 19 0 19 5 1 4
-15 7 -16 15 -5z m2983 -1 c18 -8 18 -9 2 -9 -10 -1 -16 -5 -13 -9 3 -5 -1 -9
-9 -9 -18 0 -20 17 -2 18 6 0 3 4 -8 9 -13 5 -14 9 -5 9 8 0 24 -4 35 -9z
m465 0 c12 -8 11 -10 -5 -9 -11 1 -31 5 -45 9 -24 8 -24 8 5 9 17 0 37 -4 45
-9z m2918 -36 c-3 -14 -5 -12 -10 9 -3 19 -2 25 4 19 6 -6 8 -18 6 -28z
m-2706 -13 c-1 -7 2 -10 8 -6 27 17 190 -126 256 -225 57 -85 110 -223 101
-266 -3 -19 -1 -24 10 -20 8 3 11 1 8 -5 -4 -5 -1 -16 5 -24 6 -8 9 -18 7 -22
-3 -5 -2 -27 2 -49 7 -37 5 -44 -16 -59 -12 -10 -23 -25 -24 -34 -1 -9 -5 -5
-9 9 -4 14 -8 19 -9 13 -1 -7 -6 -13 -12 -13 -5 0 -7 5 -4 10 4 6 -5 10 -19
10 -24 0 -26 4 -26 40 0 22 -4 40 -10 40 -5 0 -10 24 -10 54 0 30 -4 58 -10
61 -14 9 -12 42 3 48 10 4 10 7 0 18 -11 11 -13 10 -13 -4 0 -12 -8 -17 -30
-17 -28 0 -30 2 -30 38 0 21 5 43 12 50 9 9 9 12 0 12 -7 0 -12 -4 -12 -8 0
-5 -22 -9 -50 -11 l-50 -2 0 40 c0 29 4 40 17 43 15 3 15 4 0 17 -15 12 -17
11 -17 -3 0 -9 -4 -16 -10 -16 -5 0 -10 -16 -10 -35 0 -19 -4 -36 -10 -36 -46
-6 -45 -7 -48 74 -3 74 -2 77 19 77 12 0 20 2 17 6 -3 3 -2 21 2 40 7 29 5 34
-11 35 -10 1 -23 2 -27 3 -12 1 -82 77 -82 87 0 5 5 9 11 9 6 0 8 7 5 16 -5
13 -1 15 21 9 27 -6 27 -6 8 9 -19 14 -18 15 10 7 17 -5 29 -14 27 -20z m-787
-21 c3 -5 1 -10 -4 -10 -6 0 -11 5 -11 10 0 6 2 10 4 10 3 0 8 -4 11 -10z
m3493 -65 l0 -40 -9 40 c-4 22 -8 49 -8 60 l0 20 9 -20 c5 -11 8 -38 8 -60z
m-31 13 c-3 -7 -5 -2 -5 12 0 14 2 19 5 13 2 -7 2 -19 0 -25z m-3836 -84 c-12
-15 -18 -30 -15 -33 4 -3 9 0 11 7 6 16 20 16 26 -1 4 -12 -16 -14 -56 -8 -5
0 4 16 20 34 33 40 45 40 14 1z m3866 -31 c-3 -10 -5 -2 -5 17 0 19 2 27 5 18
2 -10 2 -26 0 -35z m-22 -3 c3 -5 1 -10 -4 -10 -6 0 -11 5 -11 10 0 6 2 10 4
10 3 0 8 -4 11 -10z m-3890 -92 c-7 -38 -10 -42 -24 -33 -18 11 -13 35 7 29
14 -5 15 -4 2 5 -8 5 -18 7 -23 2 -10 -10 2 -61 14 -61 5 0 9 -5 9 -11 0 -6
-7 -9 -15 -5 -12 4 -15 -4 -15 -39 0 -33 -4 -45 -15 -45 -10 0 -16 11 -16 33
-4 65 -1 91 10 95 6 2 11 8 11 14 0 6 10 26 21 45 18 29 24 32 31 20 5 -9 6
-31 3 -49z m-87 -150 c8 -27 7 -40 -2 -47 -9 -8 -12 2 -12 39 0 27 1 48 2 47
1 -1 6 -19 12 -39z m-112 10 c-3 -12 -14 -53 -23 -90 -9 -38 -20 -68 -23 -68
-3 0 -13 12 -22 28 -10 15 -40 51 -67 81 -28 30 -49 57 -47 60 2 3 46 8 96 9
l93 4 -7 -24z m2031 6 c3 -9 -106 -153 -131 -173 -10 -9 -17 6 -30 67 -9 43
-19 88 -23 101 l-6 23 94 -4 c52 -2 95 -8 96 -14z m-1940 -36 c-3 -8 -6 -5 -6
6 -1 11 2 17 5 13 3 -3 4 -12 1 -19z m4 -105 c-9 -15 -10 -12 -11 19 0 20 -5
38 -12 40 -7 3 -8 9 -3 18 13 22 39 -54 26 -77z m2566 72 c309 -27 527 -73
786 -166 266 -96 449 -196 497 -274 13 -21 20 -50 20 -82 0 -44 -6 -59 -50
-121 -58 -82 -86 -106 -195 -160 -221 -110 -641 -196 -1316 -267 -225 -24
-650 -55 -894 -65 -126 -5 -291 -13 -367 -16 l-136 -7 -104 93 c-56 51 -104
96 -106 100 -4 9 265 20 523 20 116 0 298 5 405 10 107 5 301 14 430 20 480
20 922 74 1213 150 240 61 427 167 427 241 0 77 -214 159 -632 243 -190 38
-814 126 -898 126 -66 0 -68 12 -10 81 28 35 59 70 68 77 21 16 122 15 339 -3z
m-3086 -67 c67 -70 79 -88 60 -88 -6 0 -112 -11 -238 -24 -483 -52 -856 -118
-1058 -188 -95 -32 -219 -96 -249 -127 l-28 -29 35 -31 c149 -136 415 -226
912 -311 282 -48 671 -78 1117 -87 l326 -6 99 -100 98 -99 -182 6 c-336 11
-736 37 -968 62 -126 14 -273 29 -325 35 -267 28 -669 104 -841 160 -244 79
-416 228 -436 378 -5 37 -3 40 61 94 279 237 895 415 1470 426 l78 1 69 -72z
m548 10 l-2 -43 -6 35 c-7 33 -5 50 5 50 2 0 3 -19 3 -42z m-49 7 c0 -8 -3
-16 -7 -18 -5 -3 -8 5 -8 18 0 13 3 21 8 18 4 -2 7 -10 7 -18z m3967 -7 c-3
-8 -6 -5 -6 6 -1 11 2 17 5 13 3 -3 4 -12 1 -19z m-10 -50 c-3 -7 -5 -2 -5 12
0 14 2 19 5 13 2 -7 2 -19 0 -25z m-6202 -13 c-3 29 -2 34 4 19 5 -11 12 -56
15 -100 3 -50 2 -70 -3 -54 l-9 25 -1 -25 c-1 -14 -6 -32 -11 -40 -6 -10 -8 3
-6 40 2 30 1 38 -1 18 -6 -50 -33 -53 -33 -4 0 19 5 38 10 41 6 3 10 32 11 63
l1 57 14 -40 14 -40 -5 40z m1926 -103 c137 -147 219 -250 219 -277 0 -37
-113 -197 -248 -350 l-42 -48 -171 12 c-210 16 -510 55 -686 91 -90 18 -306
70 -328 79 -11 5 -45 16 -75 26 -77 25 -152 64 -145 75 3 6 -1 7 -10 3 -15 -5
-16 3 -11 83 3 49 5 90 6 90 3 10 75 34 86 30 8 -3 13 -2 10 3 -5 8 248 72
419 106 70 13 287 45 425 61 296 36 424 56 443 69 12 8 27 15 33 15 6 0 40
-31 75 -68z m2449 53 c16 -8 73 -20 127 -25 54 -5 143 -17 198 -25 55 -8 129
-18 165 -22 l65 -8 6 -75 5 -75 2 63 c1 42 6 62 15 62 8 0 7 4 -3 11 -11 8 -6
9 20 6 134 -17 212 -30 260 -42 30 -7 83 -16 117 -20 41 -5 61 -11 56 -18 -4
-6 2 -8 17 -4 24 6 208 -37 224 -53 5 -5 15 -6 22 -3 7 3 27 -1 44 -8 l30 -14
0 -115 c0 -63 -4 -120 -8 -126 -12 -20 -358 -110 -448 -117 -23 -2 -46 -7 -52
-11 -6 -3 -32 -9 -59 -12 -49 -6 -77 -9 -150 -20 -57 -9 -91 1 -96 29 -3 16
-5 14 -6 -10 -1 -36 16 -33 -306 -58 -304 -24 -274 -29 -364 67 -42 45 -110
118 -153 161 -72 74 -76 81 -66 107 5 16 60 85 122 153 62 69 128 145 146 171
18 25 35 46 37 46 2 0 17 -7 33 -15z m1846 -25 c10 0 14 -12 14 -40 0 -44 -19
-56 -21 -12 -1 20 -4 16 -12 -18 l-10 -45 -9 54 c-4 30 -6 56 -3 59 3 3 5 -6
5 -19 0 -19 2 -21 10 -9 5 8 8 24 6 35 -2 11 -1 14 1 8 3 -7 11 -13 19 -13z
m-2388 -20 c-7 -11 -16 -20 -19 -20 -4 0 -5 9 -2 20 3 11 12 20 19 20 12 0 12
-4 2 -20z m132 6 c0 -3 -4 -8 -10 -11 -5 -3 -10 -1 -10 4 0 6 5 11 10 11 6 0
10 -2 10 -4z m-59 -69 c-10 -9 -11 -8 -5 6 3 10 9 15 12 12 3 -3 0 -11 -7 -18z
m-1291 -37 l0 -40 80 0 80 0 0 -40 0 -40 40 0 40 0 0 -40 c0 -38 2 -40 30 -40
28 0 30 -2 30 -40 0 -22 5 -40 10 -40 6 0 10 -18 10 -40 l0 -40 40 0 40 0 0
-86 c0 -85 0 -86 -22 -80 -13 3 -31 6 -40 6 -12 0 -18 8 -18 22 0 12 -9 31
-20 42 -10 12 -20 38 -22 59 -1 28 -6 37 -20 37 -10 0 -18 -5 -18 -11 0 -5 -5
-7 -10 -4 -6 4 -8 10 -5 15 3 5 -11 25 -30 46 -19 20 -35 31 -35 23 0 -10 -3
-10 -12 -1 -7 7 -25 12 -40 12 -28 0 -39 15 -16 22 8 3 4 13 -10 29 -13 13
-18 25 -12 27 5 2 10 12 10 23 0 15 -7 19 -35 19 -23 0 -42 8 -60 25 -17 18
-25 37 -25 60 0 28 -4 35 -20 35 -11 0 -20 -5 -20 -11 0 -5 -5 -7 -12 -3 -9 6
-9 9 0 12 7 2 12 21 12 43 0 39 0 39 40 39 l40 0 0 -40z m1150 36 c0 -2 -7 -7
-16 -10 -8 -3 -12 -2 -9 4 6 10 25 14 25 6z m-3783 -108 c-3 -7 -5 -2 -5 12 0
14 2 19 5 13 2 -7 2 -19 0 -25z m31 -28 c-2 -33 -3 -60 -1 -60 2 0 8 10 14 23
9 21 9 21 4 -3 -2 -14 -5 -38 -6 -55 -1 -29 -1 -30 -9 -5 -4 14 -8 19 -9 13
-1 -7 -5 -13 -10 -13 -4 0 -6 12 -4 28 4 21 2 24 -6 12 -12 -17 -14 -10 -5 14
3 9 10 13 15 10 5 -3 9 18 9 45 0 28 3 51 6 51 4 0 4 -27 2 -60z m3662 51 c0
-6 -4 -13 -10 -16 -5 -3 -10 1 -10 9 0 9 5 16 10 16 6 0 10 -4 10 -9z m-60
-91 c-10 -18 -13 -19 -25 -6 -21 21 -19 26 10 26 23 0 24 -2 15 -20z m-175
-60 c3 -6 -1 -13 -10 -16 -19 -8 -30 0 -20 15 8 14 22 14 30 1z m103 -13 c8
-9 4 -18 -13 -33 -13 -12 -26 -20 -29 -17 -2 3 -13 0 -23 -6 -17 -10 -17 -10
2 -12 11 -1 26 0 34 1 11 1 10 -2 -3 -15 -18 -18 -21 -35 -7 -35 5 0 12 -7 15
-16 7 -18 -19 -50 -29 -34 -10 16 -41 -6 -55 -40 -7 -16 -20 -30 -29 -30 -14
0 -14 -2 -1 -10 10 -6 17 -5 23 5 4 8 13 15 19 15 6 0 3 -9 -7 -20 -10 -11
-29 -20 -42 -20 -15 0 -23 -6 -23 -17 0 -15 2 -16 10 -3 5 8 12 11 16 7 5 -4
-3 -18 -15 -30 -13 -12 -21 -16 -17 -9 4 6 2 12 -3 12 -17 0 -13 48 5 58 10 6
12 12 6 16 -18 11 -35 -23 -29 -59 5 -31 3 -35 -16 -35 -20 -1 -21 -2 -5 -14
25 -18 3 -36 -41 -35 -20 0 -31 3 -24 5 7 3 9 12 6 20 -3 8 0 14 6 14 6 0 11
-7 11 -15 0 -16 16 -20 24 -6 11 18 -24 32 -104 41 -45 5 -101 8 -123 6 -23
-2 -30 -1 -14 1 24 4 27 8 27 44 0 39 0 39 40 39 l40 0 0 40 0 40 40 0 40 0 0
40 0 40 40 0 c39 0 40 -1 40 -35 0 -26 4 -35 18 -36 9 0 27 -2 40 -3 19 -2 22
2 22 31 0 27 9 44 43 78 43 45 67 54 85 32z m130 -1 c-7 -8 -15 -12 -17 -11
-5 6 10 25 20 25 5 0 4 -6 -3 -14z m-3671 -18 c-3 -8 -6 -5 -6 6 -1 11 2 17 5
13 3 -3 4 -12 1 -19z m2607 6 c5 -14 4 -15 -9 -4 -17 14 -19 20 -6 20 5 0 12
-7 15 -16z m986 -19 c0 -5 -5 -3 -10 5 -5 8 -10 20 -10 25 0 6 5 3 10 -5 5 -8
10 -19 10 -25z m30 25 c0 -5 -4 -10 -10 -10 -5 0 -10 5 -10 10 0 6 5 10 10 10
6 0 10 -4 10 -10z m-3643 -22 c-3 -8 -6 -5 -6 6 -1 11 2 17 5 13 3 -3 4 -12 1
-19z m2183 -57 c0 -22 11 -86 25 -143 14 -57 25 -115 25 -130 l0 -28 -92 0
c-51 0 -123 3 -160 6 l-68 7 59 63 c59 63 191 240 191 256 0 4 5 8 10 8 6 0
10 -18 10 -39z m1395 9 c-3 -5 -11 -10 -16 -10 -6 0 -7 5 -4 10 3 6 11 10 16
10 6 0 7 -4 4 -10z m556 -87 c81 -85 163 -182 158 -187 -2 -2 -73 -8 -157 -12
-163 -10 -159 -11 -143 42 5 16 19 73 31 127 13 60 26 97 34 97 7 0 42 -30 77
-67z m-561 47 c0 -5 -4 -10 -10 -10 -5 0 -10 5 -10 10 0 6 5 10 10 10 6 0 10
-4 10 -10z m-3498 -67 c1 -21 3 -126 5 -233 1 -107 4 -235 5 -285 1 -49 2
-214 1 -365 0 -151 0 -319 1 -373 0 -55 -2 -101 -6 -104 -11 -6 -10 -43 1 -43
5 0 7 -44 5 -97 -4 -114 -17 -918 -15 -980 1 -25 -3 -43 -10 -43 -7 0 -9 27
-7 80 2 44 0 80 -4 80 -5 0 -8 72 -8 160 0 88 -4 160 -9 160 -11 0 -25 151
-14 159 12 9 16 1278 3 1286 -13 8 -13 75 0 75 7 0 10 20 9 48 -1 26 2 116 6
200 7 137 6 152 -9 152 -12 0 -16 10 -16 40 0 33 3 40 20 40 17 0 20 7 20 40
0 51 19 53 22 3z m2303 7 c3 -5 -1 -10 -9 -10 -9 0 -16 5 -16 10 0 6 4 10 9
10 6 0 13 -4 16 -10z m1115 -25 c-7 -9 -15 -13 -17 -11 -7 7 7 26 19 26 6 0 6
-6 -2 -15z m-3500 -145 c0 -73 -4 -120 -10 -120 -6 0 -10 47 -10 120 0 73 4
120 10 120 6 0 10 -47 10 -120z m6210 -40 c0 -47 -4 -80 -10 -80 -6 0 -10 33
-10 80 0 47 4 80 10 80 6 0 10 -33 10 -80z m-2503 4 c-3 -3 -12 -4 -19 -1 -8
3 -5 6 6 6 11 1 17 -2 13 -5z m2033 -22 c0 -34 -68 -316 -100 -417 -40 -124
-113 -301 -157 -378 -18 -33 -33 -62 -33 -65 0 -8 -138 -230 -168 -269 -30
-40 -35 -41 -53 -5 -8 15 -17 29 -20 32 -3 3 -21 33 -40 68 -18 34 -41 71 -50
81 -11 12 -16 28 -12 42 3 16 2 20 -4 11 -7 -9 -15 -3 -29 23 -10 19 -23 35
-27 35 -5 0 -6 7 -3 16 3 8 2 12 -4 9 -6 -3 -10 -2 -10 3 0 4 -18 33 -40 62
-22 30 -38 60 -35 68 2 7 1 10 -5 7 -5 -3 -14 5 -21 17 -7 12 -19 29 -27 38
-8 8 -31 39 -50 70 -20 30 -38 57 -41 60 -4 3 -61 73 -127 156 l-121 152 41 5
c22 3 82 12 131 21 50 8 115 17 145 19 142 12 616 90 689 114 24 7 64 17 88
20 24 3 46 10 49 14 10 16 34 9 34 -9z m-5211 -3 c17 -6 31 -15 31 -21 0 -5 9
-7 19 -3 10 3 57 -3 102 -14 196 -46 546 -101 844 -132 61 -6 116 -13 123 -15
15 -4 7 -16 -197 -299 -293 -408 -305 -424 -314 -412 -6 8 -7 6 -3 -6 5 -14
-45 -111 -142 -277 -7 -11 -22 5 -62 65 -220 332 -363 673 -424 1012 -13 68
-17 113 -11 113 1 0 16 -5 34 -11z m5618 -46 c-3 -10 -5 -4 -5 12 0 17 2 24 5
18 2 -7 2 -21 0 -30z m0 -160 c-3 -10 -5 -4 -5 12 0 17 2 24 5 18 2 -7 2 -21
0 -30z m-4274 -13 c47 0 58 -3 54 -14 -3 -8 -70 -94 -149 -193 -261 -322 -395
-511 -526 -741 -80 -140 -127 -259 -140 -358 -11 -78 -7 -94 18 -94 45 0 172
31 245 60 310 122 844 523 1330 999 161 158 212 201 239 201 19 0 164 -119
164 -135 0 -5 -27 -34 -61 -64 -382 -332 -428 -370 -642 -537 -492 -383 -892
-618 -1170 -687 -142 -36 -195 -29 -259 31 -100 95 -71 314 81 602 80 154 115
208 301 469 81 113 154 215 162 227 8 12 50 73 94 134 l78 113 61 -7 c33 -3
87 -6 120 -6z m2459 -73 c37 -45 79 -95 92 -112 13 -16 52 -65 87 -108 35 -43
78 -100 96 -125 18 -26 36 -51 40 -57 76 -94 273 -375 273 -389 0 -2 19 -35
42 -72 43 -71 108 -209 108 -232 0 -18 -132 -142 -152 -142 -27 0 -48 11 -41
23 4 6 1 7 -6 2 -14 -8 -106 34 -156 71 -16 13 -32 22 -35 21 -8 -3 -218 128
-284 177 -31 23 -111 79 -177 126 -67 47 -138 99 -158 116 -20 17 -45 37 -57
45 -24 17 -86 68 -198 164 -133 115 -132 114 -121 129 77 105 149 245 180 346
27 89 19 84 146 91 63 3 146 6 184 7 l70 1 67 -82z m-2007 57 c27 -5 32 -12
53 -77 32 -98 81 -201 131 -276 22 -34 41 -66 41 -71 0 -4 -37 -39 -82 -76
-46 -38 -137 -116 -203 -174 -105 -93 -295 -246 -342 -275 -9 -5 -24 -15 -32
-22 -67 -51 -279 -193 -288 -193 -4 0 -14 -7 -24 -16 -9 -8 -26 -16 -37 -17
-11 0 -19 -4 -17 -7 7 -11 -145 -82 -161 -76 -8 3 -13 2 -10 -3 7 -10 -17 -21
-46 -21 -12 0 -46 25 -78 57 l-57 56 16 46 c9 25 32 75 51 111 19 36 37 70 39
75 11 31 64 104 72 99 5 -3 7 1 4 8 -10 24 139 243 158 231 6 -4 7 -1 3 6 -5
7 4 29 20 52 30 44 51 62 41 35 -4 -11 -3 -15 4 -11 6 4 8 14 4 22 -6 17 53
98 205 283 47 58 101 128 119 155 71 104 55 98 231 91 85 -4 169 -9 185 -12z
m145 -14 c0 -5 -10 -10 -22 -10 -19 0 -20 2 -8 10 19 13 30 13 30 0z m804 -25
c-4 -8 -10 -12 -15 -9 -14 8 -10 24 6 24 9 0 12 -6 9 -15z m2884 -50 c0 -16
-2 -15 -8 5 -4 14 -8 34 -8 45 0 16 2 15 8 -5 4 -14 8 -34 8 -45z m-3265 30
c-3 -9 -8 -14 -10 -11 -3 3 -2 9 2 15 9 16 15 13 8 -4z m26 -29 c-12 -10 -49
-16 -49 -7 0 5 10 11 23 13 22 4 34 1 26 -6z m-362 -18 c-3 -8 -6 -5 -6 6 -1
11 2 17 5 13 3 -3 4 -12 1 -19z m1154 -21 c-8 -8 -11 -7 -11 4 0 9 3 19 7 23
4 4 9 2 11 -4 3 -7 -1 -17 -7 -23z m-862 6 c-20 -27 -47 -53 -55 -53 -3 0 -1
6 5 13 6 8 8 17 4 21 -4 4 0 4 10 0 11 -4 17 -1 17 9 0 13 10 22 29 26 2 1 -3
-7 -10 -16z m891 -8 c-5 -14 -28 -64 -50 -110 -29 -62 -44 -83 -55 -79 -8 4
-15 1 -15 -5 0 -6 5 -11 10 -11 7 0 7 -7 0 -21 -6 -11 -16 -19 -22 -17 -14 5
-40 68 -28 68 6 0 10 -4 10 -10 0 -5 5 -10 11 -10 6 0 9 7 6 14 -4 10 -1 13 9
9 7 -3 14 0 14 6 0 6 -4 11 -10 11 -5 0 -10 7 -10 16 0 13 3 14 14 5 11 -9 15
-6 20 14 4 14 13 25 21 25 14 0 20 12 16 33 -1 5 3 6 8 3 5 -3 18 14 30 39 23
48 37 62 21 20z m-1208 -10 c6 -13 15 -22 19 -19 5 3 9 -11 9 -30 0 -22 5 -36
13 -37 10 0 10 -2 0 -6 -7 -2 -13 -14 -13 -26 0 -13 -12 4 -30 42 -35 73 -35
92 -1 28 19 -35 22 -37 16 -13 -3 17 -15 42 -26 58 -11 15 -15 28 -9 28 6 0
15 -11 22 -25z m3647 -240 c10 -134 5 -249 -10 -239 -11 6 -11 -22 -3 -105 5
-41 11 -61 20 -61 11 0 14 -19 14 -80 0 -73 2 -80 20 -80 19 0 20 -7 20 -200
0 -197 0 -200 -21 -200 -19 0 -21 -5 -17 -45 2 -32 -1 -45 -10 -45 -7 0 -10 4
-7 10 4 6 -1 7 -11 3 -16 -6 -17 5 -11 135 6 160 -1 271 -15 250 -9 -12 -6 34
9 165 3 30 1 53 -7 62 -6 8 -9 19 -5 26 4 6 7 153 7 328 0 325 7 345 27 76z
m-3542 149 c-3 -3 -12 -4 -19 -1 -8 3 -5 6 6 6 11 1 17 -2 13 -5z m96 -9 c-3
-9 -8 -14 -10 -11 -3 3 -2 9 2 15 9 16 15 13 8 -4z m-2626 -187 c-2 -24 -4 -5
-4 42 0 47 2 66 4 43 2 -24 2 -62 0 -85z m2513 80 c0 -14 -19 1 -31 25 -12 22
-12 22 10 3 11 -11 21 -23 21 -28z m30 27 c-7 -9 -15 -13 -19 -10 -3 3 1 10 9
15 21 14 24 12 10 -5z m3487 -227 c-1 -46 -3 -9 -3 82 0 91 2 128 3 83 2 -46
2 -120 0 -165z m-3017 214 c0 -5 -7 -9 -15 -9 -8 0 -12 4 -9 9 3 4 9 8 15 8 5
0 9 -4 9 -8z m35 -22 c3 -5 1 -10 -4 -10 -6 0 -11 5 -11 10 0 6 2 10 4 10 3 0
8 -4 11 -10z m62 -25 c0 -8 -4 -15 -9 -15 -10 0 -11 14 -1 23 9 10 10 9 10 -8z
m106 -83 c26 -24 47 -48 47 -55 0 -7 -15 5 -34 26 -18 20 -39 36 -47 34 -8 -2
-11 -2 -7 0 4 2 4 11 1 19 -4 11 -8 12 -19 3 -8 -7 -17 -9 -21 -5 -3 3 -1 6 7
6 10 0 10 3 -1 16 -23 28 -19 47 5 22 12 -13 43 -42 69 -66z m-18 -80 c-3 -3
-11 0 -18 7 -9 10 -8 11 6 5 10 -3 15 -9 12 -12z m110 0 c-3 -3 -11 0 -18 7
-9 10 -8 11 6 5 10 -3 15 -9 12 -12z m78 -68 c42 -40 42 -41 22 -41 -8 0 -15
6 -15 13 0 7 -14 24 -31 38 -17 14 -27 26 -22 26 4 0 25 -16 46 -36z m-743
-49 c-7 -8 -18 -15 -24 -15 -6 0 -2 7 8 15 25 19 32 19 16 0z m751 -26 c15
-15 19 -29 16 -53 -2 -18 2 -41 9 -51 8 -10 14 -33 14 -49 0 -24 -3 -28 -10
-16 -7 10 -9 -7 -7 -57 2 -40 7 -76 12 -80 4 -5 5 4 1 20 -4 16 -2 27 4 27 5
0 10 -5 10 -12 0 -6 3 -9 6 -5 3 3 -1 16 -10 29 -16 23 -23 70 -8 53 16 -19
34 -93 27 -114 -5 -15 -2 -21 10 -21 16 0 36 -39 38 -77 1 -11 5 -19 9 -17 10
7 41 -43 34 -55 -4 -5 -2 -12 4 -16 5 -3 10 -1 10 4 0 6 21 -10 48 -37 50 -50
84 -80 143 -124 50 -37 268 -148 293 -149 21 0 21 0 1 -9 -19 -8 -19 -9 2 -9
12 -1 28 -8 37 -16 8 -9 19 -16 23 -15 14 0 48 -12 61 -23 10 -8 10 -12 0 -18
-7 -4 -18 -3 -24 2 -8 7 -14 6 -19 -1 -8 -13 -75 -13 -75 0 0 6 -18 10 -40 10
-22 0 -40 5 -40 10 0 6 -18 10 -40 10 -33 0 -40 -3 -40 -20 0 -17 -7 -20 -40
-20 -22 0 -40 -4 -40 -10 0 -5 -18 -10 -39 -10 -22 0 -43 5 -46 10 -4 6 12 10
39 10 40 0 46 3 46 21 0 15 5 19 15 15 8 -3 15 -1 15 5 0 5 -7 12 -15 15 -9 4
-14 14 -13 23 2 12 -7 17 -39 19 -26 2 -43 -1 -43 -7 0 -6 -18 -11 -39 -11
-29 0 -40 -5 -43 -17 -3 -15 -4 -15 -17 0 -11 15 -11 17 2 17 10 0 16 13 18
43 l4 42 -127 -5 c-70 -3 -138 -2 -150 1 -13 3 -30 3 -38 -2 -12 -6 -14 1 -11
37 3 44 3 44 42 44 39 0 39 0 39 40 0 33 -3 40 -19 40 -18 0 -20 10 -25 123
-7 170 -12 215 -26 233 -20 23 0 244 21 244 5 0 18 -9 30 -21z m2636 -41 c-3
-8 -6 -5 -6 6 -1 11 2 17 5 13 3 -3 4 -12 1 -19z m-2432 -62 c44 -34 89 -69
100 -79 27 -26 258 -205 309 -241 23 -16 43 -32 46 -35 5 -7 46 -36 89 -62 14
-9 25 -22 23 -29 -1 -6 2 -9 8 -5 6 3 61 -25 123 -64 61 -38 141 -84 177 -102
109 -53 125 -62 112 -67 -7 -2 -10 -7 -7 -12 3 -4 -2 -13 -10 -20 -8 -7 -15
-19 -15 -27 0 -10 -6 -13 -17 -8 -10 3 -30 9 -46 12 -15 3 -30 9 -33 14 -2 4
-11 6 -19 3 -28 -11 -256 66 -425 144 -43 19 -189 101 -204 113 -6 6 -27 21
-46 35 -53 38 -128 112 -159 158 -47 70 -111 258 -111 327 0 24 1 24 105 -55z
m-1071 12 c-70 -246 -126 -340 -257 -435 -29 -20 -54 -40 -57 -43 -13 -13
-192 -106 -270 -140 -138 -59 -414 -140 -428 -125 -3 3 2 5 11 5 10 0 17 4 17
9 0 5 -10 7 -22 4 -18 -4 -20 -2 -8 6 8 5 11 13 7 17 -9 9 -38 -16 -31 -27 3
-5 -2 -6 -10 -3 -14 5 -14 8 0 21 8 9 12 18 9 21 -3 3 -11 0 -17 -6 -7 -7 -20
-12 -29 -12 -10 0 -20 -6 -22 -12 -4 -10 -6 -10 -6 0 -1 7 7 16 17 19 9 4 38
20 65 36 26 16 54 26 63 23 8 -3 12 -2 9 4 -3 5 9 17 27 26 18 9 45 26 60 37
15 11 31 16 39 12 8 -5 10 -4 5 3 -4 7 4 17 21 24 15 7 74 43 131 81 57 38
107 65 114 61 6 -4 8 -3 5 3 -8 13 110 96 125 87 6 -4 8 -3 5 3 -4 6 5 20 21
32 35 27 281 220 352 277 30 24 58 44 62 44 4 0 0 -24 -8 -52z m51 -173 c-22
-73 -29 -66 -8 8 9 32 18 55 21 52 3 -2 -3 -30 -13 -60z m35 11 c0 -3 -4 -8
-10 -11 -5 -3 -10 -1 -10 4 0 6 5 11 10 11 6 0 10 -2 10 -4z m-10 -76 c0 -13
-1 -13 -10 0 -8 12 -10 12 -10 1 0 -8 -2 -12 -5 -10 -2 3 -2 15 2 28 4 17 8
19 14 9 5 -7 9 -20 9 -28z m-55 -168 c-9 -9 -47 37 -39 49 5 8 8 8 13 0 4 -6
7 6 7 26 l0 37 -13 -31 c-7 -17 -17 -34 -23 -38 -5 -3 -10 -11 -10 -16 0 -6 5
-7 12 -3 7 5 9 2 5 -9 -4 -12 -2 -14 10 -10 10 4 14 2 10 -4 -4 -6 -2 -13 5
-15 8 -3 8 -12 -3 -36 -11 -25 -20 -32 -41 -32 -22 0 -28 -5 -28 -22 0 -29
-28 -58 -57 -58 -12 0 -23 -5 -23 -11 0 -5 -12 -9 -27 -8 -59 4 -66 1 -58 -28
5 -21 4 -24 -7 -16 -15 13 -71 5 -62 -8 3 -5 -3 -6 -12 -2 -16 6 -15 7 2 20
10 7 26 13 36 13 10 0 18 5 18 11 0 6 -9 8 -22 3 -28 -8 -75 -44 -59 -44 7 0
9 -5 5 -12 -4 -6 -3 -8 4 -4 6 3 13 2 17 -4 10 -17 -15 -11 -40 8 l-23 19 64
37 c36 20 69 34 74 31 6 -3 7 1 4 9 -3 9 -2 16 3 16 5 0 39 27 77 60 37 33 72
57 78 54 7 -4 8 -2 4 4 -4 6 9 31 28 56 19 25 37 55 41 66 4 11 11 18 16 15 5
-4 10 2 11 12 1 10 4 -15 5 -56 2 -40 1 -76 -2 -79z m625 -142 l0 -40 -40 0
c-22 0 -40 -4 -40 -10 0 -5 -18 -10 -40 -10 -22 0 -40 5 -40 10 0 6 -18 10
-40 10 -22 0 -40 5 -40 10 0 6 -18 10 -40 10 -22 0 -40 5 -40 10 0 6 33 10 80
10 73 0 80 2 80 20 0 18 7 20 80 20 l80 0 0 -40z m-320 -55 c0 -11 -11 -15
-40 -15 -29 0 -40 4 -40 15 0 11 11 15 40 15 29 0 40 -4 40 -15z m-593 -41
c-3 -3 -12 -4 -19 -1 -8 3 -5 6 6 6 11 1 17 -2 13 -5z m908 -22 c-3 -3 -11 0
-18 7 -9 10 -8 11 6 5 10 -3 15 -9 12 -12z m-1050 -1 c-16 -14 -55 -23 -55
-12 0 9 20 17 50 20 8 1 10 -2 5 -8z m782 -7 c-3 -3 -12 -4 -19 -1 -8 3 -5 6
6 6 11 1 17 -2 13 -5z m240 0 c-3 -3 -12 -4 -19 -1 -8 3 -5 6 6 6 11 1 17 -2
13 -5z m-1087 -12 c0 -5 -10 -14 -22 -21 -17 -9 -18 -10 -3 -5 41 14 65 16 65
6 0 -5 -18 -12 -41 -15 -23 -3 -52 -15 -64 -27 -13 -13 -31 -20 -39 -17 -8 3
-22 -1 -33 -8 -20 -16 -57 -20 -49 -6 3 4 19 11 35 14 17 4 32 14 36 25 3 12
27 28 58 40 29 11 53 20 55 21 1 0 2 -3 2 -7z m80 -12 c0 -5 -2 -10 -4 -10 -3
0 -8 5 -11 10 -3 6 -1 10 4 10 6 0 11 -4 11 -10z m1095 -44 c229 -67 490 -249
723 -503 154 -167 342 -415 342 -450 0 -4 -62 -21 -137 -36 -156 -32 -195 -47
-304 -117 -135 -87 -285 -143 -494 -184 -279 -56 -431 -56 -695 -1 -215 44
-355 98 -506 192 -89 56 -187 91 -336 118 -60 11 -98 23 -98 30 0 16 166 241
243 330 295 340 563 543 817 618 118 36 121 36 245 32 82 -2 133 -10 200 -29z
m-1775 14 c0 -5 -2 -10 -4 -10 -3 0 -8 5 -11 10 -3 6 -1 10 4 10 6 0 11 -4 11
-10z m2745 -38 c-6 -7 -65 9 -65 17 0 5 15 3 34 -3 19 -6 33 -12 31 -14z
m-2329 3 c-17 -9 -39 -14 -50 -12 -16 2 -13 6 14 14 52 16 69 15 36 -2z m-36
-26 c22 -1 21 -2 -8 -10 -26 -8 -36 -6 -50 7 -16 17 -16 17 8 11 14 -4 36 -7
50 -8z m2455 1 l20 -9 -20 0 c-11 0 -27 4 -35 9 -13 9 -13 10 0 9 8 0 24 -4
35 -9z m1762 -12 c-3 -8 -6 -5 -6 6 -1 11 2 17 5 13 3 -3 4 -12 1 -19z m-4294
-2 c5 -12 -26 -51 -40 -51 -2 0 -11 11 -18 25 -12 22 -11 26 3 32 28 11 50 9
55 -6z m2474 -2 c-3 -3 -12 -4 -19 -1 -8 3 -5 6 6 6 11 1 17 -2 13 -5z m2360
-116 c-2 -24 -4 -7 -4 37 0 44 2 63 4 43 2 -21 2 -57 0 -80z m-4918 86 c11
-10 -9 -14 -31 -5 -15 5 -30 6 -39 0 -10 -6 -7 -9 13 -9 41 0 42 -17 2 -24
-19 -4 -38 -14 -41 -22 -6 -16 -79 -20 -85 -4 -1 5 -30 12 -63 14 -33 3 -50 1
-37 -2 13 -4 23 -10 23 -14 -1 -5 -1 -12 -1 -17 0 -5 -15 -12 -32 -16 -33 -7
-33 -7 -8 -15 28 -9 27 -11 -12 -16 -26 -3 -33 5 -29 29 1 4 -8 3 -19 -3 -11
-6 -20 -14 -20 -19 0 -4 -26 -8 -57 -7 -32 0 -48 2 -35 4 12 2 22 8 22 13 0
11 -3 11 -34 0 -17 -7 -23 -15 -20 -28 4 -14 -4 -22 -30 -31 -20 -7 -40 -11
-45 -8 -4 3 -19 -3 -31 -14 -26 -23 -41 -25 -57 -9 -8 8 -16 8 -30 0 -16 -10
-15 -11 7 -8 15 1 25 -4 27 -14 4 -18 -67 -46 -87 -34 -9 6 -9 3 -1 -12 9 -18
7 -20 -13 -18 -13 2 -33 6 -45 10 -13 4 -21 2 -21 -5 0 -6 4 -9 9 -5 5 3 12 1
15 -4 3 -5 -1 -12 -10 -15 -10 -4 -13 -13 -9 -26 7 -21 -29 -66 -73 -89 -12
-6 -22 -16 -22 -22 0 -6 4 -7 10 -4 6 3 7 -1 3 -10 -4 -11 -8 -13 -13 -6 -3 7
-15 -13 -25 -44 -11 -30 -22 -55 -26 -55 -4 0 -10 -12 -14 -27 l-8 -28 -11 28
c-18 40 -25 24 -19 -44 6 -58 5 -59 -20 -59 -14 0 -28 4 -31 9 -7 11 72 186
81 178 3 -4 0 -13 -7 -21 -9 -12 -9 -22 -1 -43 l11 -28 -5 33 c-3 19 0 32 6
32 7 0 9 10 5 25 -4 14 -3 25 2 25 4 0 16 19 27 43 34 78 152 216 174 203 6
-4 9 -1 6 6 -3 8 17 31 47 54 77 60 115 78 238 111 8 3 24 5 35 6 11 1 25 5
30 8 6 4 41 10 79 13 38 3 78 8 90 11 11 3 35 7 51 9 17 2 37 6 45 9 55 21
143 27 159 11z m2791 1 l45 -15 -45 5 c-25 3 -49 10 -54 16 -14 13 1 11 54 -6z
m-700 -21 c0 -2 -7 -4 -15 -4 -8 0 -15 4 -15 10 0 5 7 7 15 4 8 -4 15 -8 15
-10z m701 -1 c33 -7 33 -7 9 -14 -43 -12 -67 -10 -67 6 0 17 9 18 58 8z m75
-8 c-4 -11 1 -15 17 -15 21 -1 21 -1 -3 -15 -28 -16 -100 -20 -100 -6 0 11 25
21 50 21 10 0 20 7 24 15 3 8 8 15 12 15 3 0 4 -7 0 -15z m151 -8 c7 0 11 -3
10 -6 -1 -3 4 -16 11 -28 11 -21 10 -21 -41 -20 -45 2 -55 6 -64 24 -10 21 -9
22 21 17 42 -6 20 4 -35 16 -39 8 -36 9 21 3 36 -3 70 -6 77 -6z m-797 -33 c0
-14 -3 -14 -15 -4 -8 7 -15 14 -15 16 0 2 7 4 15 4 8 0 15 -7 15 -16z m934 7
c3 -4 22 -11 43 -13 126 -17 314 -159 415 -313 54 -83 108 -188 108 -210 0 -8
4 -15 8 -15 5 0 23 -44 41 -97 18 -54 37 -106 42 -115 6 -11 6 -18 0 -18 -5 0
-2 -15 7 -32 9 -18 16 -50 15 -70 0 -22 4 -35 9 -32 10 6 4 -54 -8 -98 -3 -10
-1 -18 5 -18 6 0 11 10 12 23 1 18 3 16 11 -10 12 -36 5 -63 -14 -62 -10 0
-10 2 0 6 14 6 16 33 2 33 -5 0 -10 -4 -10 -10 0 -5 -5 -10 -11 -10 -6 0 -9 7
-5 15 4 11 -1 15 -17 15 -21 1 -21 1 -4 14 10 8 20 31 23 52 4 27 3 35 -4 25
-11 -16 -17 -5 -17 29 0 15 5 24 13 23 6 -2 12 3 12 11 0 8 -8 12 -22 9 -19
-3 -26 3 -40 36 -9 22 -14 50 -11 62 5 16 3 20 -7 14 -10 -6 -12 0 -8 23 3 22
1 29 -9 25 -15 -6 -75 51 -72 69 1 7 1 36 0 63 -1 37 -4 46 -11 35 -9 -13 -13
-11 -31 10 -11 14 -18 18 -14 10 4 -8 -1 -6 -9 4 -9 11 -16 25 -16 32 0 7 -14
26 -31 43 -17 17 -32 39 -33 48 -2 10 -16 25 -32 33 -15 9 -31 27 -34 40 -6
24 -30 41 -30 21 0 -6 -18 -11 -40 -11 l-40 0 0 40 c0 33 3 40 18 38 31 -5 18
26 -15 34 -31 8 -59 39 -47 51 3 3 -11 13 -31 22 -19 10 -40 26 -46 36 -7 14
-22 19 -57 20 -42 1 -39 3 22 10 39 4 74 5 80 2 5 -3 6 -1 3 4 -8 12 -136 11
-155 -1 -7 -4 -12 -2 -12 3 0 6 6 11 13 12 6 0 4 4 -7 8 -17 7 -17 8 -2 24 19
18 42 22 50 8z m1286 -111 c0 -22 -4 -40 -10 -40 -5 0 -10 -18 -10 -40 0 -33
3 -40 20 -40 17 0 20 -7 20 -40 0 -33 -3 -40 -20 -40 -18 0 -20 -7 -20 -80 0
-79 0 -80 -25 -80 -22 0 -25 5 -26 38 l-2 37 -7 -40 c-7 -39 -7 -39 -8 15 -1
37 1 50 8 40 5 -8 12 -11 17 -7 4 4 2 17 -5 27 -15 24 -16 47 -1 52 7 2 7 17
0 48 -17 74 -14 110 9 110 17 0 20 7 20 40 0 33 3 40 20 40 17 0 20 -7 20 -40z
m-2178 3 c8 -10 19 -25 23 -33 7 -12 6 -13 -6 -3 -9 8 -20 9 -29 3 -31 -20
-42 -3 -15 24 13 13 13 15 -3 19 -14 4 -14 5 -1 6 9 0 23 -7 31 -16z m118 -53
c0 -5 -18 -10 -40 -10 -22 0 -40 5 -40 10 0 6 18 10 40 10 22 0 40 -4 40 -10z
m-4061 -182 c-1 -68 -2 -70 -9 -28 -7 41 -3 100 6 100 2 0 3 -33 3 -72z m4221
-8 c0 -22 -4 -40 -10 -40 -5 0 -10 18 -10 40 0 22 5 40 10 40 6 0 10 -18 10
-40z m-2205 20 c3 -5 1 -10 -4 -10 -6 0 -11 5 -11 10 0 6 2 10 4 10 3 0 8 -4
11 -10z m-58 -72 c2 6 9 12 15 12 6 0 3 -9 -7 -20 -19 -21 -41 -28 -29 -8 5 8
2 9 -9 5 -9 -3 -19 -2 -22 3 -8 12 28 18 38 5 6 -7 10 -6 14 3z m2423 -27 l0
-41 40 0 40 0 0 -80 c0 -73 2 -80 20 -80 17 0 20 -7 20 -40 0 -38 -1 -40 -31
-40 -26 0 -30 -3 -23 -17 4 -10 10 -42 12 -71 l4 -54 -38 4 c-23 2 -39 -2 -42
-10 -3 -9 -8 -8 -19 3 -8 9 -12 22 -9 30 3 9 0 28 -6 43 -6 15 -10 36 -9 47 2
17 0 18 -9 5 -10 -13 -11 -13 -7 0 2 8 14 16 26 18 20 3 21 1 11 -18 -8 -16
-9 -29 -1 -48 5 -15 12 -38 14 -52 4 -22 4 -22 5 5 1 17 -2 36 -7 44 -12 19
-1 53 15 47 8 -3 14 1 14 9 0 8 -4 15 -10 15 -5 0 -10 11 -10 23 0 13 -9 32
-20 42 -13 12 -20 31 -20 57 0 31 -4 38 -19 38 -13 0 -20 9 -23 30 -3 17 -1
33 4 36 4 3 8 13 7 22 0 11 -2 12 -6 4 -2 -6 -9 -10 -14 -6 -5 3 -9 0 -9 -6 0
-6 -4 -8 -10 -5 -5 3 -10 23 -10 43 l0 37 60 3 60 3 0 -40z m-2450 -21 c0 -5
-5 -10 -11 -10 -5 0 -7 5 -4 10 3 6 8 10 11 10 2 0 4 -4 4 -10z m-193 -67 c-3
-10 -5 -2 -5 17 0 19 2 27 5 18 2 -10 2 -26 0 -35z m65 35 c6 -17 -3 -58 -12
-58 -16 0 -31 30 -25 50 7 22 31 27 37 8z m41 -21 c4 3 7 1 7 -5 0 -6 -9 -10
-19 -9 -12 1 -19 8 -18 20 1 16 3 16 13 3 6 -9 14 -13 17 -9z m-1836 -39 c-3
-8 -6 -5 -6 6 -1 11 2 17 5 13 3 -3 4 -12 1 -19z m1746 -13 c21 -9 23 -29 1
-21 -12 5 -14 1 -9 -15 5 -15 4 -19 -4 -15 -6 4 -11 2 -11 -3 0 -17 21 -13 37
7 14 16 14 16 7 -3 -4 -11 -7 -29 -8 -40 -1 -11 -7 -29 -13 -40 -10 -17 -12
-17 -13 -3 0 9 4 19 10 23 13 8 1 35 -16 35 -9 0 -14 -11 -14 -32 0 -18 -9
-49 -21 -68 l-21 -35 27 28 c14 15 28 27 30 27 6 0 -58 -103 -70 -113 -6 -5
-3 -7 7 -3 10 3 28 1 40 -4 22 -8 21 -9 -7 -11 -16 -1 -38 -3 -47 -2 -10 0
-18 -7 -18 -14 0 -10 7 -12 20 -8 16 5 20 2 20 -15 0 -11 12 -33 26 -47 21
-21 28 -23 35 -12 6 11 11 11 21 1 6 -6 22 -12 35 -12 13 0 23 -4 23 -10 0 -5
-18 -10 -40 -10 -22 0 -40 -4 -40 -10 0 -5 -7 -10 -15 -10 -20 0 -105 85 -105
105 0 11 -6 14 -25 9 -21 -5 -25 -3 -25 14 0 26 17 37 34 23 10 -8 16 -5 25
15 14 31 9 41 -8 20 -7 -8 -19 -12 -27 -9 -11 4 -14 26 -14 94 0 82 1 89 20
89 13 0 20 7 20 20 0 11 -4 20 -10 20 -5 0 -10 -4 -10 -10 0 -5 -4 -10 -10
-10 -5 0 -10 13 -10 30 0 28 1 29 58 32 73 4 93 3 115 -7z m-2093 -15 c0 -11
5 -20 11 -20 6 0 9 -7 5 -15 -4 -11 1 -15 19 -15 18 0 25 -5 25 -19 0 -10 7
-24 15 -31 9 -7 13 -20 10 -29 -3 -8 -3 -12 1 -8 14 13 110 -145 99 -163 -3
-5 0 -8 7 -5 14 5 54 -71 50 -94 -2 -7 1 -10 6 -7 5 3 14 -6 20 -19 7 -15 8
-25 2 -25 -5 0 -7 -7 -4 -15 4 -8 10 -13 14 -10 11 7 50 -114 43 -133 -5 -10
-3 -13 6 -8 9 6 9 3 -1 -13 -10 -16 -10 -23 -1 -29 15 -9 27 -77 18 -99 -4
-10 -7 -52 -7 -93 -1 -41 -2 -57 -4 -35 -10 103 -11 105 -54 105 -40 0 -40 0
-40 40 0 22 -4 40 -10 40 -5 0 -10 18 -10 40 0 22 -4 40 -10 40 -5 0 -10 18
-10 40 0 22 -4 40 -9 40 -5 0 -12 10 -16 23 l-8 22 -4 -22 c-7 -38 -23 -26
-23 17 0 22 5 40 10 40 6 0 10 18 10 40 0 22 -5 40 -11 40 -14 0 -63 50 -72
74 -4 10 -10 16 -13 13 -3 -3 -14 3 -24 13 -9 9 -24 20 -31 23 -12 5 -11 7 1
16 8 6 11 11 5 11 -5 0 -3 5 5 11 12 8 9 9 -12 5 l-28 -6 0 120 c0 73 4 120
10 120 6 0 10 -9 10 -20z m174 -15 c20 -19 36 -38 36 -43 0 -5 -15 -8 -34 -8
-19 1 -32 4 -29 9 5 8 -7 13 -61 22 -35 6 -37 7 -20 20 11 8 28 15 39 16 17 1
16 2 -5 9 -24 8 -24 8 7 9 23 1 41 -8 67 -34z m2005 17 c-12 -19 -39 -26 -39
-10 0 7 27 22 48 27 1 1 -3 -7 -9 -17z m4208 -4 c-3 -8 -6 -5 -6 6 -1 11 2 17
5 13 3 -3 4 -12 1 -19z m230 16 c-3 -3 -12 -4 -19 -1 -8 3 -5 6 6 6 11 1 17
-2 13 -5z m-2017 -14 c0 -5 -4 -10 -10 -10 -5 0 -10 5 -10 10 0 6 5 10 10 10
6 0 10 -4 10 -10z m-4273 -52 c-3 -7 -5 -2 -5 12 0 14 2 19 5 13 2 -7 2 -19 0
-25z m26 12 c3 -11 1 -20 -4 -20 -5 0 -9 9 -9 20 0 11 2 20 4 20 2 0 6 -9 9
-20z m4267 -1 c0 -6 -4 -7 -10 -4 -5 3 -10 11 -10 16 0 6 5 7 10 4 6 -3 10
-11 10 -16z m-2477 -9 c-10 -11 -19 -20 -21 -20 -1 0 2 9 8 20 6 11 15 20 20
20 6 0 2 -9 -7 -20z m4251 -14 c-3 -15 -8 -25 -11 -23 -2 3 -1 17 3 31 3 15 8
25 11 23 2 -3 1 -17 -3 -31z m246 30 c0 -2 -9 -6 -20 -9 -11 -3 -18 -1 -14 4
5 9 34 13 34 5z m-6406 -41 c-7 -16 -24 -21 -24 -6 0 8 7 13 27 20 1 1 0 -6
-3 -14z m715 -1 c4 3 7 -29 8 -71 2 -66 0 -74 -15 -71 -15 4 -17 -4 -15 -66 2
-39 5 -77 8 -83 2 -8 -3 -13 -13 -13 -21 0 -23 -40 -3 -64 10 -12 10 -16 2
-16 -8 0 -7 -6 4 -16 12 -13 19 -14 30 -4 12 10 15 10 15 -3 0 -8 10 -18 23
-22 13 -4 17 -8 9 -12 -6 -2 -9 -9 -6 -15 13 -21 -99 16 -126 41 -10 9 -15 10
-18 2 -2 -6 -10 -11 -18 -11 -16 0 -18 34 -3 65 7 15 8 12 4 -14 -7 -46 3 -34
20 23 8 26 10 46 5 46 -6 0 -10 -8 -11 -17 0 -10 -3 -13 -5 -6 -3 6 0 31 7 55
7 24 14 56 16 72 2 17 8 33 14 37 7 4 8 12 5 18 -4 6 -1 11 8 11 18 0 39 35
33 53 -3 7 -9 1 -15 -13 -9 -21 -11 -22 -11 -5 0 11 7 36 15 55 14 33 14 34 9
5 -4 -25 -3 -27 6 -12 6 10 8 30 5 45 -3 15 -3 21 0 14 3 -6 9 -10 13 -8z
m3671 6 c0 -5 -4 -10 -10 -10 -5 0 -10 5 -10 10 0 6 5 10 10 10 6 0 10 -4 10
-10z m1771 -55 c6 16 8 17 8 3 1 -9 -4 -20 -9 -23 -12 -7 -30 37 -29 68 1 12
6 2 11 -23 9 -37 12 -41 19 -25z m-6196 44 c11 -17 -1 -21 -15 -4 -8 9 -8 15
-2 15 6 0 14 -5 17 -11z m6290 -10 l-7 -22 30 22 c17 11 36 21 44 21 7 0 4 -5
-7 -12 -11 -6 -35 -24 -53 -40 -23 -19 -40 -27 -53 -23 -14 5 -17 3 -13 -9 5
-12 2 -15 -11 -10 -14 6 -13 11 12 38 30 33 55 56 61 56 2 0 0 -10 -3 -21z
m-6245 -19 c0 -5 -5 -10 -11 -10 -5 0 -7 5 -4 10 3 6 8 10 11 10 2 0 4 -4 4
-10z m6279 -117 c-267 -419 -275 -823 -23 -1138 30 -38 54 -72 54 -75 0 -13
-166 -138 -315 -238 -613 -410 -1348 -648 -2255 -729 -237 -22 -980 -25 -1205
-5 -596 52 -1076 160 -1585 359 -219 86 -491 226 -695 358 -116 76 -313 229
-321 249 -3 9 19 44 51 83 123 149 193 356 181 535 -7 101 -29 217 -58 303
-30 87 -111 247 -161 318 -61 86 -61 87 -40 87 11 0 37 -16 59 -36 63 -59 290
-216 409 -285 334 -191 669 -316 1225 -454 811 -202 1979 -218 2870 -39 175
35 522 125 670 174 419 139 841 361 1130 596 36 29 66 49 68 44 2 -5 -25 -53
-59 -107z m-159 87 c0 -5 -2 -10 -4 -10 -3 0 -8 5 -11 10 -3 6 -1 10 4 10 6 0
11 -4 11 -10z m-6403 -62 c-2 -13 -4 -5 -4 17 -1 22 1 32 4 23 2 -10 2 -28 0
-40z m6423 32 c0 -5 -4 -10 -10 -10 -5 0 -10 5 -10 10 0 6 5 10 10 10 6 0 10
-4 10 -10z m-4295 -110 c-3 -5 -21 -9 -38 -9 l-32 2 35 7 c19 4 36 8 38 9 2 0
0 -3 -3 -9z m2575 1 c-8 -6 -18 -7 -22 -5 -4 3 -8 1 -8 -4 0 -6 -10 -8 -22 -4
-21 5 -21 6 -2 13 10 4 30 8 44 8 19 1 21 -2 10 -8z m-2540 -11 c0 -5 -7 -10
-16 -10 -8 0 -12 5 -9 10 3 6 10 10 16 10 5 0 9 -4 9 -10z m120 -20 c0 -5 -2
-10 -4 -10 -3 0 -8 5 -11 10 -3 6 -1 10 4 10 6 0 11 -4 11 -10z m55 -18 c-3
-3 -11 0 -18 7 -9 10 -8 11 6 5 10 -3 15 -9 12 -12z m-18 -18 c-3 -3 -12 -4
-19 -1 -8 3 -5 6 6 6 11 1 17 -2 13 -5z m100 0 c-3 -3 -12 -4 -19 -1 -8 3 -5
6 6 6 11 1 17 -2 13 -5z m-44 -11 c-7 -2 -19 -2 -25 0 -7 3 -2 5 12 5 14 0 19
-2 13 -5z m2082 -11 c-3 -3 -11 0 -18 7 -9 10 -8 11 6 5 10 -3 15 -9 12 -12z
m-2475 -2 c0 -5 7 -10 16 -10 18 0 44 -23 44 -40 0 -31 29 -40 134 -40 l106 0
0 -80 c0 -47 4 -80 10 -80 6 0 10 18 10 40 0 38 2 40 30 40 27 0 30 3 30 34 0
50 9 69 26 55 8 -6 24 -9 36 -7 21 4 23 1 19 -39 l-3 -44 85 3 84 3 -8 -30
c-5 -16 -9 -31 -9 -32 0 -2 33 -3 73 -4 44 0 64 -3 52 -8 -18 -7 -17 -8 6 -14
28 -7 69 1 69 13 0 5 -10 10 -22 12 -12 2 -23 9 -24 16 -1 7 0 8 3 2 2 -5 9
-8 14 -4 9 5 52 -20 45 -27 -2 -2 19 -5 47 -7 65 -4 89 -22 29 -22 -40 0 -42
-1 -42 -30 0 -28 2 -30 40 -30 33 0 40 -3 40 -20 0 -18 7 -20 80 -20 62 0 80
3 80 14 0 11 10 13 43 9 43 -6 49 4 7 12 -12 2 -25 7 -29 11 -3 4 2 4 12 1 9
-4 17 -3 17 2 0 17 40 19 116 4 43 -8 102 -12 131 -10 29 2 56 1 58 -4 3 -4
-4 -6 -15 -4 -13 2 -20 -1 -20 -11 0 -10 8 -15 23 -14 48 4 57 0 57 -25 0 -22
4 -25 40 -25 22 0 40 5 40 10 0 6 10 10 23 9 l22 0 -22 -9 c-46 -18 -23 -30
57 -30 l80 0 0 -30 0 -30 74 0 c41 0 78 5 81 10 3 6 42 10 86 10 46 0 79 -4
79 -10 0 -6 34 -10 81 -10 l81 0 -2 38 c-1 20 -2 56 -1 80 l1 42 80 0 c47 0
80 4 80 10 0 6 18 10 40 10 22 0 40 -4 40 -10 0 -5 18 -10 39 -10 39 0 40 1
43 37 l3 38 118 0 117 0 0 -37 0 -38 80 0 c47 0 80 4 80 10 0 6 18 10 40 10
22 0 40 -4 40 -10 0 -5 18 -10 40 -10 22 0 40 5 40 11 0 6 21 9 53 7 29 -2 51
-8 50 -13 -1 -6 21 -12 50 -13 l52 -1 -32 14 c-48 21 -41 35 17 35 28 0 50 -4
50 -10 0 -17 29 -11 51 11 19 19 19 20 2 19 -36 -4 -63 0 -63 10 0 5 59 9 146
8 97 0 142 -4 133 -10 -10 -7 -5 -8 16 -4 24 5 27 4 12 -4 -9 -6 -27 -8 -38
-5 -12 4 -19 3 -16 -1 3 -5 -11 -10 -31 -12 -20 -1 -40 -6 -45 -11 -5 -5 4 -7
20 -5 27 4 27 3 3 -5 -14 -4 -30 -4 -35 0 -6 4 -21 1 -35 -6 -14 -8 -21 -14
-17 -15 5 0 5 -5 2 -10 -5 -8 -11 -8 -19 -1 -8 7 -24 7 -44 2 -17 -5 -41 -7
-54 -5 -23 5 -23 5 -1 -5 14 -6 34 -7 55 0 42 12 44 11 31 -2 -6 -6 -33 -10
-59 -9 -27 1 -64 2 -81 2 -41 2 -76 -16 -88 -45 -8 -16 -25 -24 -73 -34 -34
-7 -71 -17 -81 -23 -25 -13 -54 -13 -46 0 3 6 -1 10 -9 10 -20 0 -30 -17 -14
-23 8 -3 6 -6 -4 -6 -10 -1 -18 4 -18 10 0 6 -16 2 -36 -10 -19 -12 -40 -18
-46 -15 -7 4 -8 2 -4 -4 10 -17 -24 -15 -38 2 -7 9 -19 11 -36 6 -15 -5 -18
-8 -8 -9 9 -1 20 -6 24 -13 5 -8 2 -9 -11 -5 -9 4 -24 2 -32 -4 -7 -7 -17 -9
-20 -5 -4 4 -1 12 7 17 12 9 12 10 -3 5 -10 -3 -24 -6 -30 -6 -8 0 -7 -4 2 -9
11 -7 10 -10 -5 -14 -21 -7 -115 -19 -154 -21 -14 -1 -29 -4 -35 -8 -5 -3 -25
-4 -43 -2 -18 2 -31 0 -28 -5 9 -14 -129 -25 -152 -12 -29 15 -40 14 -17 -3
16 -11 10 -14 -51 -19 -53 -4 -71 -2 -77 9 -4 8 -13 14 -20 14 -7 0 -6 -4 3
-10 8 -5 12 -11 9 -15 -18 -17 -559 -41 -559 -25 0 5 10 11 23 13 12 2 0 2
-28 -1 -27 -2 -57 -8 -65 -12 -19 -9 -508 -5 -625 6 -73 6 -83 9 -55 15 l35 6
-45 3 c-43 2 -44 3 -15 11 26 7 25 8 -10 4 -22 -3 -60 -5 -85 -6 -34 0 -40 -2
-25 -9 18 -8 17 -9 -7 -9 -16 -1 -28 3 -28 7 0 22 -122 35 -190 20 -14 -3 -19
-3 -12 -1 21 8 13 19 -15 21 -16 1 -37 6 -48 12 -11 5 -58 13 -105 18 -47 5
-69 10 -50 12 32 2 33 3 10 9 -14 4 -42 3 -63 -2 -30 -8 -41 -6 -56 7 -18 17
-48 13 -64 -8 -5 -6 -5 -1 -2 12 6 21 3 22 -45 22 -28 0 -60 5 -71 10 -11 6
-40 12 -64 13 -50 2 -53 4 -27 23 16 11 15 13 -11 23 -34 13 -60 14 -53 2 3
-5 -11 -9 -32 -9 -20 0 -31 3 -24 5 26 10 10 23 -28 23 -22 0 -40 4 -40 9 0 5
-36 8 -80 7 -44 -1 -86 2 -93 7 -9 6 -8 8 3 4 9 -3 24 1 34 9 17 12 14 13 -20
8 -31 -4 -36 -3 -24 6 12 9 8 10 -17 5 -17 -3 -33 -2 -36 2 -3 5 -20 10 -38
11 -18 1 -38 7 -45 12 -6 6 -20 7 -30 4 -14 -5 -12 -2 6 14 l25 21 -35 -5
c-21 -3 -45 1 -60 10 -14 8 -35 20 -47 25 -13 6 -23 17 -23 25 0 8 -10 22 -22
30 -18 13 -19 16 -6 16 9 0 20 -4 23 -10 3 -5 24 -10 46 -10 21 0 39 -4 39
-10 0 -6 33 -10 80 -10 73 0 80 2 80 20 0 18 7 20 80 20 l80 0 0 -40 0 -40 45
0 c38 0 45 -3 45 -20 0 -18 7 -20 75 -20 68 0 75 2 75 20 0 17 7 20 40 20 l40
0 0 40 0 40 -40 0 -40 0 0 40 0 40 80 0 80 0 0 50 c0 28 5 50 10 50 6 0 10 -4
10 -10z m320 -10 c0 -5 0 -12 0 -15 0 -14 -13 -8 -16 8 -1 9 2 17 7 17 5 0 9
-4 9 -10z m-2319 -37 c-4 -28 -6 -32 -9 -15 -3 22 3 52 11 52 1 0 1 -17 -2
-37z m4334 17 c-3 -5 -11 -10 -16 -10 -6 0 -7 5 -4 10 3 6 11 10 16 10 6 0 7
-4 4 -10z m30 -30 c-3 -5 -11 -10 -16 -10 -6 0 -7 5 -4 10 3 6 11 10 16 10 6
0 7 -4 4 -10z m-85 -4 c0 -2 -9 -6 -20 -9 -11 -3 -18 -1 -14 4 5 9 34 13 34 5z
m-1765 -16 c3 -5 1 -10 -4 -10 -6 0 -11 5 -11 10 0 6 2 10 4 10 3 0 8 -4 11
-10z m1645 -45 c-46 -18 -64 -17 -25 0 17 8 37 14 45 14 8 0 -1 -7 -20 -14z
m60 1 c0 -2 -7 -7 -16 -10 -8 -3 -12 -2 -9 4 6 10 25 14 25 6z m-1505 -35 c-6
-5 -25 10 -25 20 0 5 6 4 14 -3 8 -7 12 -15 11 -17z m-38 13 c-3 -3 -12 -4
-19 -1 -8 3 -5 6 6 6 11 1 17 -2 13 -5z m1453 -13 c0 -4 -11 -6 -25 -3 -14 2
-25 6 -25 8 0 2 11 4 25 4 14 0 25 -4 25 -9z m-3015 -21 c-18 -8 -18 -9 6 -9
28 -1 49 -18 49 -39 0 -10 -7 -8 -26 7 -21 16 -30 19 -41 10 -7 -7 -16 -9 -20
-5 -3 3 -1 6 5 6 7 0 12 5 12 11 0 6 -7 9 -15 6 -8 -4 -17 -2 -20 3 -6 9 17
17 50 18 l20 1 -20 -9z m3115 -12 c0 -17 -3 -19 -9 -9 -5 7 -15 10 -22 7 -8
-4 -5 0 5 8 25 20 26 20 26 -6z m1495 1 c-37 -6 -37 -6 -10 -9 36 -4 42 -3 75
5 14 4 3 -5 -24 -20 -27 -14 -56 -24 -65 -22 -11 3 -8 5 6 6 12 0 25 6 28 11
9 14 -38 13 -53 -2 -6 -6 -15 -8 -19 -4 -4 4 -1 11 6 15 11 7 11 10 0 17 -10
6 0 11 31 14 57 7 79 -3 25 -11z m-1748 -5 c-3 -3 -12 -4 -19 -1 -8 3 -5 6 6
6 11 1 17 -2 13 -5z m-1060 -10 c-3 -3 -12 -4 -19 -1 -8 3 -5 6 6 6 11 1 17
-2 13 -5z m80 -20 c-3 -3 -12 -4 -19 -1 -8 3 -5 6 6 6 11 1 17 -2 13 -5z m70
-10 c-3 -3 -12 -4 -19 -1 -8 3 -5 6 6 6 11 1 17 -2 13 -5z m726 -1 c-7 -2 -19
-2 -25 0 -7 3 -2 5 12 5 14 0 19 -2 13 -5z m1517 -23 c-20 -13 -60 -13 -60 0
0 6 17 10 38 10 27 0 33 -3 22 -10z m-2075 -10 c3 -5 -1 -10 -10 -10 -9 0 -13
5 -10 10 3 6 8 10 10 10 2 0 7 -4 10 -10z m418 3 c-7 -2 -21 -2 -30 0 -10 3
-4 5 12 5 17 0 24 -2 18 -5z m-2393 -18 c14 -8 21 -14 15 -14 -5 0 -21 6 -35
14 -14 8 -20 14 -15 14 6 0 21 -6 35 -14z m1777 -5 c36 -13 40 -40 6 -40 -12
0 -23 5 -23 10 0 6 -18 10 -40 10 -29 0 -40 4 -40 15 0 18 52 20 97 5z m243 0
c-22 -7 -20 -8 14 -9 22 -1 37 -4 33 -7 -3 -4 -32 -3 -64 2 -52 7 -55 8 -28
15 17 3 39 7 50 7 16 0 15 -2 -5 -8z m168 -17 c-10 -2 -28 -2 -40 0 -13 2 -5
4 17 4 22 1 32 -1 23 -4z m122 -28 c6 -12 -65 -19 -89 -10 -15 7 -15 8 1 14
27 9 82 7 88 -4z m1733 -34 c17 -6 16 -8 -8 -19 -14 -7 -31 -10 -36 -6 -6 3
-16 1 -24 -6 -8 -7 -15 -7 -19 -1 -4 6 6 17 21 25 31 17 40 18 66 7z m-4886
-73 c-3 -7 -5 -2 -5 12 0 14 2 19 5 13 2 -7 2 -19 0 -25z m1423 16 c0 -2 -9
-4 -21 -4 -11 0 -18 4 -14 10 5 8 35 3 35 -6z m-65 -14 c8 -13 -5 -13 -25 0
-13 8 -13 10 2 10 9 0 20 -4 23 -10z m412 -96 c-3 -3 -12 -4 -19 -1 -8 3 -5 6
6 6 11 1 17 -2 13 -5z m-1770 -46 c-3 -7 -5 -2 -5 12 0 14 2 19 5 13 2 -7 2
-19 0 -25z m-30 -40 c-3 -8 -6 -5 -6 6 -1 11 2 17 5 13 3 -3 4 -12 1 -19z m13
-43 c0 -8 -2 -15 -4 -15 -2 0 -6 7 -10 15 -3 8 -1 15 4 15 6 0 10 -7 10 -15z
m-43 -72 c-4 -3 -2 -12 4 -19 7 -9 7 -18 0 -31 -10 -17 -10 -16 -11 4 0 12 -3
28 -6 37 -4 10 -1 16 7 16 7 0 9 -3 6 -7z m-25 -63 c-2 -17 -8 -33 -13 -36 -5
-3 -9 -10 -9 -15 0 -6 5 -7 11 -3 9 5 -3 -26 -15 -43 -1 -1 -2 20 -2 47 0 28
3 44 8 37 5 -8 8 -5 8 10 0 12 -4 25 -10 28 -5 3 -10 13 -10 22 0 15 2 14 18
0 13 -12 17 -26 14 -47z m-250 35 c0 -5 -5 -11 -11 -13 -6 -2 -11 4 -11 13 0
9 5 15 11 13 6 -2 11 -8 11 -13z m53 -192 c3 -15 -8 6 -24 47 -16 41 -30 82
-30 90 0 19 46 -99 54 -137z m-18 125 c-3 -8 -6 -5 -6 6 -1 11 2 17 5 13 3 -3
4 -12 1 -19z m134 -81 c-10 -9 -11 -8 -5 6 3 10 9 15 12 12 3 -3 0 -11 -7 -18z
m25 -19 c-18 -26 -22 -17 -5 14 6 11 13 17 16 15 3 -3 -2 -16 -11 -29z m6434
-38 c0 -5 -5 -10 -11 -10 -5 0 -7 5 -4 10 3 6 8 10 11 10 2 0 4 -4 4 -10z
m-6488 -32 c-7 -7 -12 -8 -12 -2 0 6 3 14 7 17 3 4 9 5 12 2 2 -3 -1 -11 -7
-17z m-47 -18 c4 0 5 7 1 15 -3 8 -1 15 4 15 6 0 9 -24 8 -55 -2 -54 -3 -55
-16 -29 -8 15 -18 41 -23 58 -7 27 -7 29 5 14 7 -10 17 -18 21 -18z m6496 -30
c6 0 7 -5 4 -10 -10 -16 -25 -1 -24 23 1 17 2 18 6 5 2 -10 9 -18 14 -18z
m-6441 -81 c0 -5 -5 -7 -10 -4 -7 4 -9 -3 -5 -22 l7 -28 -14 25 c-10 17 -11
27 -4 32 16 11 26 10 26 -3z m6345 -79 c-3 -5 -11 -10 -16 -10 -6 0 -7 5 -4
10 3 6 11 10 16 10 6 0 7 -4 4 -10z m-6315 -35 c0 -5 -5 -3 -10 5 -5 8 -10 20
-10 25 0 6 5 3 10 -5 5 -8 10 -19 10 -25z m6288 0 c-3 -3 -9 2 -12 12 -6 14
-5 15 5 6 7 -7 10 -15 7 -18z m-6248 -69 c0 -6 -7 -1 -15 10 -8 10 -15 23 -15
28 0 6 7 1 15 -10 8 -10 15 -23 15 -28z m30 -37 c0 -6 12 -26 26 -45 15 -19
24 -34 21 -34 -7 0 -67 82 -67 93 0 4 5 5 10 2 6 -3 10 -11 10 -16z m6194 6
c-4 -8 -8 -15 -10 -15 -2 0 -4 7 -4 15 0 8 4 15 10 15 5 0 7 -7 4 -15z m-184
-9 c0 -2 -7 -7 -16 -10 -8 -3 -12 -2 -9 4 6 10 25 14 25 6z m151 -42 c-13 -18
-17 -20 -24 -7 -5 8 -6 17 -3 20 3 4 6 1 6 -6 0 -7 5 -9 10 -6 6 4 8 16 4 27
-5 18 -4 19 9 7 13 -12 12 -16 -2 -35z m-5866 -44 c3 -6 -1 -7 -9 -4 -18 7
-21 14 -7 14 6 0 13 -4 16 -10z m5795 -50 c-12 -17 -24 -29 -27 -26 -3 2 5 18
18 35 29 40 38 32 9 -9z m-5966 -13 c3 4 6 1 6 -5 0 -7 -4 -12 -8 -12 -10 0
-52 47 -52 58 0 4 11 -5 24 -20 13 -15 27 -24 30 -21z m261 33 c3 -5 1 -10 -4
-10 -6 0 -11 5 -11 10 0 6 2 10 4 10 3 0 8 -4 11 -10z m5415 -15 c-7 -9 -15
-13 -19 -10 -3 3 1 10 9 15 21 14 24 12 10 -5z m-5397 -22 c-7 -2 -19 -2 -25
0 -7 3 -2 5 12 5 14 0 19 -2 13 -5z m5357 -3 c0 -5 -5 -10 -11 -10 -5 0 -7 5
-4 10 3 6 8 10 11 10 2 0 4 -4 4 -10z m-35 -10 c-3 -5 -12 -10 -18 -10 -7 0
-6 4 3 10 19 12 23 12 15 0z m-5524 -27 c9 -9 10 -13 2 -13 -7 0 -15 5 -18 10
-8 13 -25 13 -25 0 0 -6 11 -16 25 -22 14 -6 25 -19 25 -30 0 -10 5 -18 12
-18 6 0 9 -3 5 -6 -3 -3 -28 16 -55 42 l-50 49 34 0 c18 0 39 -6 45 -12z
m5489 7 c0 -5 -5 -10 -11 -10 -5 0 -7 5 -4 10 3 6 8 10 11 10 2 0 4 -4 4 -10z
m-45 -30 c-3 -5 -11 -10 -16 -10 -6 0 -7 5 -4 10 3 6 11 10 16 10 6 0 7 -4 4
-10z m-5048 -16 c-3 -3 -12 -4 -19 -1 -8 3 -5 6 6 6 11 1 17 -2 13 -5z m5023
-4 c12 -8 11 -10 -7 -10 -13 0 -23 5 -23 10 0 13 11 13 30 0z m-5043 -16 c-3
-3 -12 -4 -19 -1 -8 3 -5 6 6 6 11 1 17 -2 13 -5z m46 -9 c-3 -9 -8 -14 -10
-11 -3 3 -2 9 2 15 9 16 15 13 8 -4z m4931 4 c-6 -11 -66 -39 -81 -39 -6 1 74
46 85 49 2 1 0 -4 -4 -10z m436 8 c0 -2 -19 -18 -42 -36 l-43 -32 39 35 c37
34 46 40 46 33z m-5711 -16 c7 -5 10 -14 7 -20 -11 -17 -29 -13 -22 5 5 12 2
15 -9 10 -9 -3 -13 -2 -10 4 8 12 16 12 34 1z m5641 -11 c0 -5 -5 -10 -11 -10
-5 0 -7 5 -4 10 3 6 8 10 11 10 2 0 4 -4 4 -10z m-5255 -10 c3 -5 1 -10 -4
-10 -6 0 -11 5 -11 10 0 6 2 10 4 10 3 0 8 -4 11 -10z m-414 -17 c13 -16 12
-17 -3 -4 -17 13 -22 21 -14 21 2 0 10 -8 17 -17z m5204 -3 c-3 -5 -1 -10 6
-10 7 0 10 -2 8 -5 -3 -2 -16 -1 -29 2 -22 6 -23 7 -4 14 26 10 26 10 19 -1z
m-41 -18 c2 -4 -5 -9 -17 -9 -17 -2 -19 0 -7 7 18 12 18 12 24 2z m-5028 -19
c-14 -4 -16 -7 -6 -13 7 -4 26 -4 42 1 24 7 28 6 18 -5 -7 -10 -7 -15 0 -18 5
-1 2 -8 -8 -15 -12 -7 -24 -8 -33 -2 -11 7 -10 9 4 9 10 0 16 4 12 10 -3 6
-15 6 -30 0 -19 -7 -29 -5 -47 12 l-23 20 29 -17 c24 -15 28 -15 23 -2 -7 18
1 27 22 26 12 -1 11 -3 -3 -6z m5444 -3 c-13 -9 -13 -10 1 -10 8 0 20 5 27 12
7 7 12 9 12 6 0 -4 -13 -16 -28 -27 l-29 -20 3 22 c3 29 2 27 17 27 8 0 7 -4
-3 -10z m-4925 -30 c3 -5 2 -10 -4 -10 -5 0 -13 5 -16 10 -3 6 -2 10 4 10 5 0
13 -4 16 -10z m4881 -15 c-11 -8 -27 -15 -35 -14 -9 0 -2 7 14 14 39 18 45 18
21 0z m-539 -1 c-3 -3 -12 -4 -19 -1 -8 3 -5 6 6 6 11 1 17 -2 13 -5z m-4744
-18 c13 -8 41 -13 67 -11 25 1 40 0 33 -2 -10 -3 -10 -9 0 -26 7 -12 17 -25
22 -29 19 -14 -40 -8 -60 6 -11 7 -35 17 -52 20 -18 4 -36 12 -40 18 -4 7 -1
9 8 6 44 -18 54 -20 44 -11 -19 19 -73 33 -79 20 -2 -7 -5 -4 -5 6 -1 21 31
23 62 3z m5207 -21 c0 -5 -89 -45 -99 -45 -8 1 81 49 92 50 4 0 7 -2 7 -5z
m-567 -12 c-7 -2 -19 -2 -25 0 -7 3 -2 5 12 5 14 0 19 -2 13 -5z m-53 -7 c0
-3 -4 -8 -10 -11 -5 -3 -10 -1 -10 4 0 6 5 11 10 11 6 0 10 -2 10 -4z m-4370
-40 c8 -2 14 -7 12 -12 -5 -17 -47 -21 -82 -7 -28 11 -30 12 -8 10 20 -3 25 0
20 11 -4 12 0 14 19 8 13 -4 31 -8 39 -10z m130 -16 c0 -5 -7 -10 -15 -10 -8
0 -15 5 -15 10 0 6 7 10 15 10 8 0 15 -4 15 -10z m-23 -36 c22 -21 25 -27 13
-34 -8 -6 -22 -9 -30 -9 -10 1 -9 3 3 6 14 4 10 9 -19 24 -20 10 -41 16 -46
13 -5 -3 -16 -3 -26 1 -14 5 -14 7 -2 15 29 18 78 11 107 -16z m513 16 c8 -5
11 -10 5 -10 -5 0 -17 5 -25 10 -8 5 -10 10 -5 10 6 0 17 -5 25 -10z m3520
-10 c8 -5 11 -10 5 -10 -5 0 -17 5 -25 10 -8 5 -10 10 -5 10 6 0 17 -5 25 -10z
m-4090 -20 c0 -5 -2 -10 -4 -10 -3 0 -8 5 -11 10 -3 6 -1 10 4 10 6 0 11 -4
11 -10z m4002 -5 c0 -5 -5 -10 -11 -11 -8 -2 -7 -1 0 3 8 4 7 8 -2 15 -11 8
-11 9 -1 6 8 -2 14 -8 14 -13z m-3465 -11 c-3 -3 -12 -4 -19 -1 -8 3 -5 6 6 6
11 1 17 -2 13 -5z m-371 -17 c12 -12 62 -8 68 6 3 6 3 -1 -1 -16 -3 -15 -1
-27 3 -26 5 1 26 1 47 0 28 -1 37 -5 37 -19 0 -14 -9 -17 -50 -16 -34 0 -47
-2 -38 -9 9 -6 8 -7 -5 -3 -10 3 -23 6 -28 6 -6 0 -8 4 -4 9 3 5 -7 19 -21 30
-30 23 -59 28 -48 9 4 -8 3 -10 -2 -5 -5 5 -9 12 -9 15 0 4 -4 12 -8 18 -8 13
46 14 59 1z m-71 -7 c3 -5 1 -10 -4 -10 -6 0 -11 5 -11 10 0 6 2 10 4 10 3 0
8 -4 11 -10z m3712 -6 c-3 -3 -12 -4 -19 -1 -8 3 -5 6 6 6 11 1 17 -2 13 -5z
m729 -9 c-36 -19 -45 -19 -20 0 10 8 26 14 34 15 8 0 2 -7 -14 -15z m-3649 -9
c0 -8 -6 -12 -15 -9 -11 5 -11 7 0 14 7 5 13 9 14 9 0 0 1 -6 1 -14z m3583 -5
c0 -12 -20 -25 -27 -18 -7 7 6 27 18 27 5 0 9 -4 9 -9z m-3613 -17 c-3 -3 -12
-4 -19 -1 -8 3 -5 6 6 6 11 1 17 -2 13 -5z m80 -10 c-3 -3 -12 -4 -19 -1 -8 3
-5 6 6 6 11 1 17 -2 13 -5z m3448 -33 c-33 -16 -71 -32 -85 -36 -22 -7 -23 -6
-11 9 8 9 19 15 25 13 6 -2 22 4 36 13 14 10 34 20 45 23 49 12 45 5 -10 -22z
m-4014 -10 c17 -13 38 -18 67 -15 29 2 42 0 42 -9 0 -16 74 -60 84 -50 3 3 6
-1 6 -10 0 -13 9 -17 35 -17 40 0 46 -16 13 -30 -20 -7 -20 -9 -4 -9 16 -1 17
-3 5 -18 -12 -14 -12 -16 1 -11 8 2 15 13 15 24 0 25 38 30 67 10 12 -9 32
-16 43 -17 20 0 20 0 0 -9 -19 -8 -19 -8 -1 -16 13 -5 23 -2 31 9 17 24 25 21
25 -8 0 -23 4 -25 45 -25 25 0 45 -4 45 -10 0 -5 11 -20 24 -33 14 -14 22 -28
19 -31 -4 -3 13 -6 36 -6 31 0 49 -7 68 -25 15 -13 40 -27 56 -31 25 -5 28 -9
23 -32 -4 -17 -3 -22 2 -14 9 13 42 6 42 -8 0 -5 9 -12 20 -15 11 -3 20 -13
20 -21 0 -8 10 -14 24 -14 13 0 29 -7 36 -15 7 -8 23 -15 36 -15 14 0 24 -6
24 -14 0 -8 3 -21 6 -30 5 -12 0 -16 -17 -17 -13 0 -18 -3 -12 -6 7 -2 29 1
48 7 33 11 37 10 65 -18 16 -17 30 -35 30 -41 0 -6 18 -11 40 -11 22 0 40 -4
40 -10 0 -5 18 -10 40 -10 38 0 40 -2 40 -30 0 -20 5 -30 15 -30 8 0 25 -6 36
-12 17 -10 23 -10 26 0 3 7 22 12 45 12 l40 0 -3 -47 c-3 -43 -1 -48 18 -51
15 -2 24 -13 28 -33 5 -23 12 -29 32 -29 25 0 83 -48 83 -69 0 -6 12 -11 26
-11 15 0 33 -8 40 -17 13 -17 13 -17 14 0 0 13 9 17 40 17 40 0 40 0 40 -39 0
-30 7 -46 35 -75 20 -22 36 -49 36 -64 2 -24 2 -24 6 -5 5 25 7 26 40 17 14
-4 27 -20 35 -39 10 -28 15 -32 30 -24 14 8 18 6 18 -6 0 -9 7 -23 15 -31 8
-9 15 -26 15 -40 0 -20 -4 -24 -22 -21 -13 2 -18 2 -11 0 6 -2 13 -10 15 -17
2 -10 11 -8 33 7 17 10 22 17 13 13 -15 -5 -18 1 -18 39 0 45 0 45 35 45 19 0
44 -6 55 -12 16 -10 23 -10 37 5 9 9 12 17 6 17 -6 0 -13 -5 -15 -12 -2 -6
-12 -9 -21 -5 -21 8 -25 79 -4 76 6 -1 20 1 30 5 28 13 49 -1 42 -25 -7 -21
-6 -21 17 2 l25 24 -24 3 c-18 3 -23 10 -23 31 0 41 17 51 92 51 64 0 68 1 68
23 0 15 11 29 30 40 19 11 30 14 30 7 0 -7 5 -10 12 -8 8 3 11 21 9 51 l-3 47
39 0 c41 0 78 -18 56 -27 -18 -7 -16 -24 2 -17 8 4 15 1 15 -6 0 -6 5 -8 11
-4 7 4 7 9 2 13 -5 3 -12 14 -16 23 -7 20 34 68 58 68 31 0 72 32 86 66 7 19
19 34 27 34 8 0 12 -6 8 -15 -4 -10 1 -15 14 -15 11 0 20 -5 20 -11 0 -6 7 -4
15 5 8 8 15 18 15 22 0 3 -7 1 -15 -6 -24 -20 -17 3 9 32 14 14 22 30 18 34
-4 5 0 3 9 -4 13 -10 19 -6 38 18 14 19 30 30 46 30 18 0 25 5 25 20 0 16 7
20 33 20 32 1 76 24 60 32 -4 3 -1 3 7 0 49 -14 53 -15 46 -4 -4 7 -2 12 3 12
6 0 11 9 11 20 0 12 6 20 13 19 29 -4 77 2 77 9 0 4 -14 9 -32 10 -45 4 -49
12 -5 12 20 0 42 6 49 13 16 18 61 9 54 -10 -3 -8 -1 -11 4 -8 18 11 10 34
-12 38 -20 3 -19 5 9 12 17 4 41 16 52 26 14 13 21 15 25 6 3 -9 7 -8 15 3 5
8 13 11 18 7 4 -5 1 -12 -7 -17 -9 -6 -10 -10 -3 -10 13 0 30 16 53 49 8 11
20 21 27 21 18 0 16 10 -4 27 -16 13 -16 13 4 4 28 -14 55 -15 34 -2 -10 7 -7
9 12 8 16 -1 22 -6 16 -11 -20 -21 -7 -25 24 -6 17 11 37 20 42 20 6 0 -10
-12 -35 -26 -25 -14 -60 -35 -79 -47 -19 -11 -31 -15 -27 -9 4 7 2 12 -3 12
-6 0 -11 -6 -11 -14 0 -7 -22 -27 -50 -44 -33 -21 -50 -27 -50 -18 0 8 10 17
23 21 19 6 20 8 4 12 -20 5 -49 -25 -43 -43 3 -6 -8 -18 -22 -25 -15 -7 -39
-21 -53 -31 -14 -10 -29 -14 -33 -10 -4 4 -6 0 -4 -8 2 -11 -5 -14 -28 -13
-20 2 -37 -4 -45 -14 -13 -15 -12 -15 9 -4 13 7 26 11 28 8 8 -8 -108 -77
-119 -70 -6 3 -7 1 -3 -5 3 -6 -3 -16 -16 -23 -16 -9 -23 -9 -26 0 -2 6 -8 9
-12 6 -5 -3 -7 -11 -5 -18 6 -14 -52 -50 -66 -41 -5 3 -8 0 -7 -8 2 -7 -6 -13
-17 -14 -41 -2 -46 -4 -43 -20 2 -10 -34 -41 -105 -90 -73 -50 -107 -69 -105
-57 2 11 -4 18 -17 20 -11 1 -14 0 -7 -3 29 -13 4 -68 -26 -57 -11 5 -13 3 -7
-7 6 -10 4 -12 -8 -7 -9 3 -19 1 -23 -5 -4 -7 -3 -8 4 -4 7 4 12 4 12 -1 -1
-18 -90 -73 -112 -70 -13 2 -17 2 -10 0 20 -7 14 -17 -19 -37 -18 -11 -29 -14
-25 -7 4 6 3 11 -2 11 -6 0 -12 -7 -16 -15 -3 -8 -12 -15 -20 -15 -8 0 -18 -4
-21 -10 -4 -6 1 -7 12 -4 10 4 -2 -8 -27 -27 -24 -19 -55 -44 -68 -56 -13 -12
-60 -50 -103 -83 -79 -60 -80 -60 -104 -43 -13 10 -25 21 -25 26 0 4 -6 7 -12
7 -16 1 -104 80 -101 91 2 5 -5 5 -14 2 -10 -4 -14 -2 -10 4 4 5 -5 15 -18 21
-14 7 -25 16 -25 22 0 5 -3 9 -7 8 -9 -3 -55 21 -63 32 -3 4 -50 38 -105 75
-96 66 -174 123 -185 136 -3 4 -15 9 -27 13 -13 4 -23 11 -23 16 0 4 -19 19
-42 33 -24 14 -52 33 -63 41 -11 9 -65 46 -120 81 -55 36 -100 70 -100 77 0 6
-7 13 -15 15 -13 4 -13 3 0 -6 26 -19 2 -12 -34 10 -20 12 -33 26 -29 32 3 6
1 7 -5 3 -14 -9 -165 88 -155 99 5 4 2 5 -5 1 -7 -5 -21 -2 -30 7 -15 13 -103
65 -183 108 -16 9 -47 28 -68 42 -33 22 -80 48 -218 120 -20 10 -31 22 -27 29
4 7 3 8 -5 4 -12 -8 -71 14 -71 26 0 15 -40 48 -57 48 -14 -1 -12 -4 7 -15 43
-25 12 -16 -43 11 -29 15 -58 35 -65 46 -8 11 -21 17 -30 14 -22 -7 -80 29
-60 37 22 10 81 -3 109 -22z m882 12 c-7 -2 -19 -2 -25 0 -7 3 -2 5 12 5 14 0
19 -2 13 -5z m2180 0 c-7 -2 -21 -2 -30 0 -10 3 -4 5 12 5 17 0 24 -2 18 -5z
m50 0 c-7 -2 -19 -2 -25 0 -7 3 -2 5 12 5 14 0 19 -2 13 -5z m-2933 -19 c0 -8
-4 -12 -10 -9 -5 3 -10 10 -10 16 0 5 5 9 10 9 6 0 10 -7 10 -16z m748 9 c-11
-3 -15 -10 -11 -21 6 -14 5 -15 -9 -2 -17 16 -6 31 22 29 11 -1 11 -2 -2 -6z
m1957 -23 c-3 -5 -12 -7 -20 -3 -21 7 -19 13 6 13 11 0 18 -4 14 -10z m42 4
c-3 -3 -12 -4 -19 -1 -8 3 -5 6 6 6 11 1 17 -2 13 -5z m-2044 -11 c-7 -2 -19
-2 -25 0 -7 3 -2 5 12 5 14 0 19 -2 13 -5z m277 -2 c-8 -6 -17 -8 -21 -5 -4 2
-10 0 -14 -6 -4 -6 -11 -7 -17 -4 -7 5 -8 2 -3 -5 4 -8 17 -10 31 -7 22 6 23
4 14 -20 -9 -22 -8 -25 7 -22 10 2 19 13 21 26 3 22 6 23 40 25 15 1 102 -50
102 -60 0 -2 -5 -1 -12 3 -7 4 -8 3 -4 -5 4 -6 12 -9 17 -6 10 7 30 -7 125
-91 36 -33 72 -62 79 -67 8 -4 27 -20 42 -35 16 -15 50 -45 77 -67 27 -22 106
-95 175 -162 69 -68 128 -123 131 -123 4 0 71 63 149 141 97 95 148 139 158
135 11 -4 13 -2 9 9 -3 8 -2 15 2 15 4 0 25 17 48 38 99 92 254 213 265 206 7
-4 9 -3 5 4 -4 6 14 25 41 43 41 29 54 32 107 31 46 -1 57 1 46 9 -12 8 -10 9
10 5 14 -3 34 -6 45 -7 11 0 14 -3 8 -6 -7 -2 -13 -11 -13 -20 0 -10 -6 -12
-19 -8 -13 4 -23 0 -30 -12 -11 -20 -20 -21 -32 -1 -7 10 -13 8 -31 -11 -15
-17 -17 -20 -4 -10 17 12 19 12 14 -1 -6 -20 -45 -25 -65 -8 -15 12 -15 11 -3
-8 12 -20 10 -25 -17 -53 -18 -17 -36 -31 -42 -31 -6 0 -11 -6 -11 -12 0 -18
-68 -71 -80 -63 -6 3 -10 2 -10 -4 0 -5 -16 -26 -35 -47 -19 -20 -35 -41 -35
-45 0 -5 -9 -9 -20 -9 -11 0 -20 5 -20 10 0 6 -9 10 -20 10 -14 0 -20 -7 -20
-22 0 -17 -11 -28 -40 -41 -28 -13 -40 -25 -40 -40 0 -28 -28 -57 -57 -57 -17
0 -23 -6 -23 -23 0 -13 6 -29 13 -37 10 -12 9 -12 -4 -2 -13 10 -19 9 -29 -3
-7 -8 -19 -15 -26 -15 -10 0 -14 -13 -14 -40 0 -22 -4 -40 -10 -40 -5 0 -10
11 -10 25 0 14 -4 25 -10 25 -5 0 -12 -11 -16 -25 -4 -18 -13 -25 -30 -25 -20
0 -24 -5 -24 -31 0 -30 -1 -31 -37 -27 -21 3 -45 8 -55 12 -12 5 -16 3 -15
-11 2 -15 -7 -18 -65 -21 l-68 -3 0 41 c0 32 3 40 19 40 10 0 21 -9 24 -20 3
-14 14 -20 31 -20 16 0 26 -6 26 -15 0 -8 5 -15 10 -15 6 0 10 10 9 23 0 29
-76 91 -98 81 -9 -4 -35 -9 -58 -12 -42 -4 -43 -3 -43 27 0 17 -5 31 -11 31
-7 0 -23 12 -38 28 l-26 27 -3 -27 c-3 -25 -7 -28 -43 -28 -39 0 -39 0 -39 39
0 29 5 40 17 43 15 3 15 4 0 17 -15 12 -17 11 -17 -3 0 -13 -13 -16 -80 -16
l-80 0 0 40 0 40 -40 0 -40 0 0 40 0 40 57 0 c55 0 56 0 38 20 -10 11 -16 29
-13 43 4 20 1 23 -19 19 -14 -3 -32 3 -43 13 -18 16 -20 17 -20 2 0 -13 -9
-17 -40 -17 l-40 0 0 40 0 40 -40 0 -40 0 0 40 c0 40 0 40 -37 40 -21 0 -45 5
-53 10 -10 6 -11 10 -2 10 7 0 12 14 12 34 0 36 7 40 80 44 19 1 21 -1 10 -7z
m2692 -43 c-30 -16 -57 -26 -60 -23 -3 3 1 5 9 5 12 0 11 2 -1 11 -12 9 -13
12 -1 16 11 5 11 7 0 15 -11 7 -9 8 4 4 53 -17 70 -19 62 -6 -5 9 -4 11 3 6 7
-4 12 -1 12 9 0 13 3 13 13 3 11 -10 4 -17 -41 -40z m-105 -53 c-31 -20 -117
-61 -117 -56 0 5 18 16 41 26 34 16 38 20 23 26 -12 4 -6 6 18 6 21 -1 36 -2
35 -2z m-147 -68 c0 -7 -17 -21 -37 -31 -31 -15 -35 -15 -24 -2 8 9 20 16 28
16 7 0 16 7 19 15 7 19 14 19 14 2z m-103 -34 c-9 -9 -20 -13 -24 -9 -4 4 -1
11 7 16 25 16 35 11 17 -7z m18 -23 c-3 -5 -13 -10 -21 -10 -8 0 -14 -5 -14
-12 0 -6 -3 -8 -6 -5 -10 9 16 37 33 37 8 0 11 -4 8 -10z m-335 -119 c0 -5 -7
-11 -15 -15 -15 -5 -20 5 -8 17 9 10 23 9 23 -2z m-420 -345 c0 -3 -4 -8 -10
-11 -5 -3 -10 -1 -10 4 0 6 5 11 10 11 6 0 10 -2 10 -4z m-780 -376 c11 -7 3
-10 -28 -10 -26 0 -41 4 -37 10 8 13 45 13 65 0z"/>
<path d="M5858 10973 c12 -2 32 -2 45 0 12 2 2 4 -23 4 -25 0 -35 -2 -22 -4z"/>
<path d="M4918 10923 c7 -3 16 -2 19 1 4 3 -2 6 -13 5 -11 0 -14 -3 -6 -6z"/>
<path d="M4948 10903 c6 -2 18 -2 25 0 6 3 1 5 -13 5 -14 0 -19 -2 -12 -5z"/>
<path d="M4990 10890 c-13 -9 -13 -10 0 -9 8 0 24 4 35 9 l20 9 -20 0 c-11 0
-27 -4 -35 -9z"/>
<path d="M4140 10750 c0 -5 5 -10 10 -10 6 0 10 5 10 10 0 6 -4 10 -10 10 -5
0 -10 -4 -10 -10z"/>
<path d="M7205 10750 c-3 -5 -1 -10 4 -10 6 0 11 5 11 10 0 6 -2 10 -4 10 -3
0 -8 -4 -11 -10z"/>
<path d="M3805 10690 c-3 -5 -1 -10 4 -10 6 0 11 5 11 10 0 6 -2 10 -4 10 -3
0 -8 -4 -11 -10z"/>
<path d="M3568 10583 c6 -2 18 -2 25 0 6 3 1 5 -13 5 -14 0 -19 -2 -12 -5z"/>
<path d="M8345 10430 c3 -5 8 -10 11 -10 2 0 4 5 4 10 0 6 -5 10 -11 10 -5 0
-7 -4 -4 -10z"/>
<path d="M3165 10420 c-3 -5 -1 -10 4 -10 6 0 11 5 11 10 0 6 -2 10 -4 10 -3
0 -8 -4 -11 -10z"/>
<path d="M8400 10344 c0 -8 5 -12 10 -9 6 3 10 10 10 16 0 5 -4 9 -10 9 -5 0
-10 -7 -10 -16z"/>
<path d="M8500 10340 c0 -5 5 -10 11 -10 5 0 7 5 4 10 -3 6 -8 10 -11 10 -2 0
-4 -4 -4 -10z"/>
<path d="M8640 10276 c0 -2 7 -7 16 -10 8 -3 12 -2 9 4 -6 10 -25 14 -25 6z"/>
<path d="M2515 10090 c-3 -6 1 -7 9 -4 18 7 21 14 7 14 -6 0 -13 -4 -16 -10z"/>
<path d="M2265 9960 c-3 -6 1 -7 9 -4 18 7 21 14 7 14 -6 0 -13 -4 -16 -10z"/>
<path d="M9120 9935 c0 -8 7 -15 15 -15 8 0 15 4 15 9 0 5 -7 11 -15 15 -9 3
-15 0 -15 -9z"/>
<path d="M2210 9881 c0 -6 -10 -16 -22 -21 -23 -9 -23 -9 -2 -9 20 -1 41 26
29 37 -3 3 -5 0 -5 -7z"/>
<path d="M2045 9789 c-11 -16 -1 -19 13 -3 7 8 8 14 3 14 -5 0 -13 -5 -16 -11z"/>
<path d="M1906 9613 c-6 -14 -5 -15 5 -6 7 7 10 15 7 18 -3 3 -9 -2 -12 -12z"/>
<path d="M1816 9485 c-3 -9 -6 -26 -5 -38 1 -14 4 -9 9 13 9 37 7 52 -4 25z"/>
<path d="M1831 9424 c0 -11 3 -14 6 -6 3 7 2 16 -1 19 -3 4 -6 -2 -5 -13z"/>
<path d="M1811 9214 c0 -11 3 -14 6 -6 3 7 2 16 -1 19 -3 4 -6 -2 -5 -13z"/>
<path d="M1901 8834 c0 -11 3 -14 6 -6 3 7 2 16 -1 19 -3 4 -6 -2 -5 -13z"/>
<path d="M1880 8815 c0 -5 5 -17 10 -25 5 -8 10 -10 10 -5 0 6 -5 17 -10 25
-5 8 -10 11 -10 5z"/>
<path d="M1970 8611 c0 -5 5 -13 10 -16 6 -3 10 -2 10 4 0 5 -4 13 -10 16 -5
3 -10 2 -10 -4z"/>
<path d="M9521 8574 c0 -11 3 -14 6 -6 3 7 2 16 -1 19 -3 4 -6 -2 -5 -13z"/>
<path d="M2031 8194 c0 -11 3 -14 6 -6 3 7 2 16 -1 19 -3 4 -6 -2 -5 -13z"/>
<path d="M9455 8079 c-4 -6 -5 -12 -2 -15 2 -3 7 2 10 11 7 17 1 20 -8 4z"/>
<path d="M2061 8044 c0 -11 3 -14 6 -6 3 7 2 16 -1 19 -3 4 -6 -2 -5 -13z"/>
<path d="M2122 7680 c0 -19 2 -27 5 -17 2 9 2 25 0 35 -3 9 -5 1 -5 -18z"/>
<path d="M2141 7694 c0 -11 3 -14 6 -6 3 7 2 16 -1 19 -3 4 -6 -2 -5 -13z"/>
<path d="M2141 7654 c0 -11 3 -14 6 -6 3 7 2 16 -1 19 -3 4 -6 -2 -5 -13z"/>
<path d="M2141 7554 c0 -11 3 -14 6 -6 3 7 2 16 -1 19 -3 4 -6 -2 -5 -13z"/>
<path d="M2200 7270 c0 -5 5 -10 10 -10 6 0 10 5 10 10 0 6 -4 10 -10 10 -5 0
-10 -4 -10 -10z"/>
<path d="M9291 7264 c0 -11 3 -14 6 -6 3 7 2 16 -1 19 -3 4 -6 -2 -5 -13z"/>
<path d="M2201 7184 c0 -11 3 -14 6 -6 3 7 2 16 -1 19 -3 4 -6 -2 -5 -13z"/>
<path d="M2211 7104 c0 -11 3 -14 6 -6 3 7 2 16 -1 19 -3 4 -6 -2 -5 -13z"/>
<path d="M9301 7104 c0 -11 3 -14 6 -6 3 7 2 16 -1 19 -3 4 -6 -2 -5 -13z"/>
<path d="M2223 7045 c0 -22 2 -30 4 -17 2 12 2 30 0 40 -3 9 -5 -1 -4 -23z"/>
<path d="M2202 7015 c0 -16 2 -22 5 -12 2 9 2 23 0 30 -3 6 -5 -1 -5 -18z"/>
<path d="M9281 6974 c0 -11 3 -14 6 -6 3 7 2 16 -1 19 -3 4 -6 -2 -5 -13z"/>
<path d="M2213 6920 c0 -25 2 -35 4 -22 2 12 2 32 0 45 -2 12 -4 2 -4 -23z"/>
<path d="M9292 6850 c0 -19 2 -27 5 -17 2 9 2 25 0 35 -3 9 -5 1 -5 -18z"/>
<path d="M2222 6775 c0 -16 2 -22 5 -12 2 9 2 23 0 30 -3 6 -5 -1 -5 -18z"/>
<path d="M2222 6700 c0 -14 2 -19 5 -12 2 6 2 18 0 25 -3 6 -5 1 -5 -13z"/>
<path d="M2222 5780 c0 -14 2 -19 5 -12 2 6 2 18 0 25 -3 6 -5 1 -5 -13z"/>
<path d="M2202 5530 c0 -14 2 -19 5 -12 2 6 2 18 0 25 -3 6 -5 1 -5 -13z"/>
<path d="M2221 5534 c0 -11 3 -14 6 -6 3 7 2 16 -1 19 -3 4 -6 -2 -5 -13z"/>
<path d="M9291 5374 c0 -11 3 -14 6 -6 3 7 2 16 -1 19 -3 4 -6 -2 -5 -13z"/>
<path d="M2191 5264 c0 -11 3 -14 6 -6 3 7 2 16 -1 19 -3 4 -6 -2 -5 -13z"/>
<path d="M2223 5080 c0 -25 2 -35 4 -22 2 12 2 32 0 45 -2 12 -4 2 -4 -23z"/>
<path d="M9301 4814 c0 -11 3 -14 6 -6 3 7 2 16 -1 19 -3 4 -6 -2 -5 -13z"/>
<path d="M2203 4765 c0 -27 2 -38 4 -22 2 15 2 37 0 50 -2 12 -4 0 -4 -28z"/>
<path d="M9290 4736 c0 -9 5 -16 10 -16 6 0 10 4 10 9 0 6 -4 13 -10 16 -5 3
-10 -1 -10 -9z"/>
<path d="M2212 4585 c0 -16 2 -22 5 -12 2 9 2 23 0 30 -3 6 -5 -1 -5 -18z"/>
<path d="M9293 4475 c0 -27 2 -38 4 -22 2 15 2 37 0 50 -2 12 -4 0 -4 -28z"/>
<path d="M9292 4390 c0 -14 2 -19 5 -12 2 6 2 18 0 25 -3 6 -5 1 -5 -13z"/>
<path d="M9222 4050 c0 -14 2 -19 5 -12 2 6 2 18 0 25 -3 6 -5 1 -5 -13z"/>
<path d="M2271 4044 c0 -11 3 -14 6 -6 3 7 2 16 -1 19 -3 4 -6 -2 -5 -13z"/>
<path d="M2290 3925 c-6 -8 -10 -20 -7 -27 3 -8 6 -5 7 7 l1 20 9 -20 c8 -18
9 -17 9 8 1 31 -2 33 -19 12z"/>
<path d="M2298 3815 c6 -64 9 -67 13 -12 2 25 1 43 -3 41 -3 -2 -8 2 -11 8 -2
7 -2 -9 1 -37z"/>
<path d="M9211 3824 c0 -11 3 -14 6 -6 3 7 2 16 -1 19 -3 4 -6 -2 -5 -13z"/>
<path d="M2357 3520 c3 -14 9 -40 14 -58 4 -19 10 -36 13 -40 10 -9 -6 60 -20
93 -11 23 -12 24 -7 5z"/>
<path d="M9140 3531 c0 -7 -4 -9 -10 -6 -6 4 -7 -1 -3 -11 6 -15 7 -15 15 1 6
9 7 19 4 22 -3 4 -6 1 -6 -6z"/>
<path d="M9121 3474 c0 -11 3 -14 6 -6 3 7 2 16 -1 19 -3 4 -6 -2 -5 -13z"/>
<path d="M9056 3203 c-6 -14 -5 -15 5 -6 7 7 10 15 7 18 -3 3 -9 -2 -12 -12z"/>
<path d="M4808 10383 c6 -2 18 -2 25 0 6 3 1 5 -13 5 -14 0 -19 -2 -12 -5z"/>
<path d="M4968 10383 c7 -3 16 -2 19 1 4 3 -2 6 -13 5 -11 0 -14 -3 -6 -6z"/>
<path d="M4778 10353 c7 -3 16 -2 19 1 4 3 -2 6 -13 5 -11 0 -14 -3 -6 -6z"/>
<path d="M4333 10293 c9 -2 14 -9 11 -15 -5 -8 6 -9 36 -5 47 6 79 27 42 27
-12 0 -22 -4 -22 -10 0 -5 -7 -10 -15 -10 -8 0 -15 5 -15 10 0 6 -12 9 -27 9
-18 -1 -21 -3 -10 -6z"/>
<path d="M7118 10278 c6 -6 18 -8 28 -6 14 3 12 5 -9 10 -19 3 -25 2 -19 -4z"/>
<path d="M7455 10230 c-16 -7 -17 -9 -3 -9 9 -1 20 4 23 9 7 11 7 11 -20 0z"/>
<path d="M7318 10223 c7 -3 16 -2 19 1 4 3 -2 6 -13 5 -11 0 -14 -3 -6 -6z"/>
<path d="M7767 10184 c-14 -15 -6 -34 14 -34 14 0 19 5 17 17 -3 18 -20 27
-31 17z"/>
<path d="M7738 10103 c7 -3 16 -2 19 1 4 3 -2 6 -13 5 -11 0 -14 -3 -6 -6z"/>
<path d="M8557 9745 c-4 -8 3 -10 19 -7 29 5 30 8 5 15 -11 3 -22 -1 -24 -8z"/>
<path d="M8770 9596 c0 -2 7 -7 16 -10 8 -3 12 -2 9 4 -6 10 -25 14 -25 6z"/>
<path d="M8890 9510 c8 -5 20 -10 25 -10 6 0 3 5 -5 10 -8 5 -19 10 -25 10 -5
0 -3 -5 5 -10z"/>
<path d="M8930 9490 c0 -5 5 -10 11 -10 5 0 7 5 4 10 -3 6 -8 10 -11 10 -2 0
-4 -4 -4 -10z"/>
<path d="M9065 9390 c3 -5 10 -10 16 -10 5 0 9 5 9 10 0 6 -7 10 -16 10 -8 0
-12 -4 -9 -10z"/>
<path d="M3090 9810 c-19 -11 -28 -19 -20 -20 8 0 29 9 45 20 38 25 21 25 -25
0z"/>
<path d="M2367 9353 c-12 -12 -7 -22 8 -17 8 4 15 10 15 15 0 11 -14 12 -23 2z"/>
<path d="M2405 9350 c-3 -6 1 -7 9 -4 18 7 21 14 7 14 -6 0 -13 -4 -16 -10z"/>
<path d="M2361 9304 c0 -11 3 -14 6 -6 3 7 2 16 -1 19 -3 4 -6 -2 -5 -13z"/>
<path d="M2422 8980 c0 -14 2 -19 5 -12 2 6 2 18 0 25 -3 6 -5 1 -5 -13z"/>
<path d="M2482 8865 c0 -16 2 -22 5 -12 2 9 2 23 0 30 -3 6 -5 -1 -5 -18z"/>
<path d="M2491 8820 c0 -8 4 -24 9 -35 5 -13 9 -14 9 -5 0 8 -4 24 -9 35 -5
13 -9 14 -9 5z"/>
<path d="M2506 8725 c-9 -26 -7 -32 5 -12 6 10 9 21 6 23 -2 3 -7 -2 -11 -11z"/>
<path d="M7420 9220 c-9 -6 -10 -10 -3 -10 6 0 15 5 18 10 8 12 4 12 -15 0z"/>
<path d="M4071 9216 c2 -2 18 -6 34 -10 22 -5 26 -4 15 4 -14 9 -59 15 -49 6z"/>
<path d="M3897 8999 c4 -13 8 -18 11 -10 2 7 -1 18 -6 23 -8 8 -9 4 -5 -13z"/>
<path d="M3438 7813 c7 -3 16 -2 19 1 4 3 -2 6 -13 5 -11 0 -14 -3 -6 -6z"/>
<path d="M5570 8446 c0 -2 7 -6 15 -10 8 -3 15 -1 15 4 0 6 -7 10 -15 10 -8 0
-15 -2 -15 -4z"/>
<path d="M5280 8325 c0 -8 7 -15 16 -15 8 0 12 5 9 10 -4 7 3 9 22 5 21 -5 24
-4 13 4 -22 16 -60 13 -60 -4z"/>
<path d="M2576 8344 c-8 -21 -8 -21 7 -27 10 -4 13 2 9 19 -5 28 -8 30 -16 8z"/>
<path d="M6175 8330 c-4 -7 3 -8 22 -4 38 9 42 14 10 14 -14 0 -29 -5 -32 -10z"/>
<path d="M6568 7815 c2 -19 8 -35 13 -35 5 0 6 12 3 28 -10 41 -21 46 -16 7z"/>
<path d="M6560 7746 c0 -15 4 -25 9 -22 10 7 9 31 -2 42 -4 4 -7 -5 -7 -20z"/>
<path d="M5017 8113 c-4 -3 -7 -11 -7 -17 0 -6 5 -5 12 2 6 6 9 14 7 17 -3 3
-9 2 -12 -2z"/>
<path d="M4966 8025 c-3 -8 -1 -15 4 -15 6 0 10 7 10 15 0 8 -2 15 -4 15 -2 0
-6 -7 -10 -15z"/>
<path d="M2632 7650 c0 -14 2 -19 5 -12 2 6 2 18 0 25 -3 6 -5 1 -5 -13z"/>
<path d="M8250 7180 c-18 -12 -2 -12 25 0 13 6 15 9 5 9 -8 0 -22 -4 -30 -9z"/>
<path d="M6160 7199 c0 -5 5 -7 10 -4 6 3 10 8 10 11 0 2 -4 4 -10 4 -5 0 -10
-5 -10 -11z"/>
<path d="M6085 7189 c-12 -19 3 -22 27 -5 l22 16 -21 0 c-12 0 -25 -5 -28 -11z"/>
<path d="M5968 7033 c7 -3 16 -2 19 1 4 3 -2 6 -13 5 -11 0 -14 -3 -6 -6z"/>
<path d="M2722 6665 c0 -16 2 -22 5 -12 2 9 2 23 0 30 -3 6 -5 -1 -5 -18z"/>
<path d="M2722 5980 c0 -14 2 -19 5 -12 2 6 2 18 0 25 -3 6 -5 1 -5 -13z"/>
<path d="M4268 5583 c7 -3 16 -2 19 1 4 3 -2 6 -13 5 -11 0 -14 -3 -6 -6z"/>
<path d="M6291 6442 c-7 -13 -10 -28 -7 -35 2 -7 5 -5 5 5 1 9 6 18 13 20 6 2
9 11 6 18 -3 11 -8 9 -17 -8z"/>
<path d="M8792 5735 c0 -16 2 -22 5 -12 2 9 2 23 0 30 -3 6 -5 -1 -5 -18z"/>
<path d="M6247 5537 c-3 -7 3 -13 14 -13 13 0 15 3 7 13 -6 7 -12 13 -13 13
-2 0 -5 -6 -8 -13z"/>
<path d="M6200 5400 l0 -40 40 0 40 0 0 40 0 40 -40 0 -40 0 0 -40z"/>
<path d="M6670 5246 c0 -2 7 -7 16 -10 8 -3 12 -2 9 4 -6 10 -25 14 -25 6z"/>
<path d="M6730 5586 c0 -2 8 -10 18 -17 15 -13 16 -12 3 4 -13 16 -21 21 -21
13z"/>
<path d="M4600 5460 c-9 -6 -10 -10 -3 -10 6 0 15 5 18 10 8 12 4 12 -15 0z"/>
<path d="M4346 5305 c-11 -8 -15 -15 -9 -15 6 0 16 7 23 15 16 19 11 19 -14 0z"/>
<path d="M4303 5250 c-11 -16 -10 -18 2 -14 8 4 15 12 15 20 0 19 -3 18 -17
-6z"/>
<path d="M5164 5475 c-10 -8 -14 -15 -8 -15 6 0 17 7 24 15 16 19 9 19 -16 0z"/>
<path d="M5182 5454 c-7 -8 -8 -14 -3 -14 10 0 25 19 20 25 -2 1 -10 -3 -17
-11z"/>
<path d="M5085 5400 c-3 -5 -1 -10 4 -10 6 0 11 5 11 10 0 6 -2 10 -4 10 -3 0
-8 -4 -11 -10z"/>
<path d="M5100 5375 c-8 -9 -8 -15 -2 -15 12 0 26 19 19 26 -2 2 -10 -2 -17
-11z"/>
<path d="M5645 4995 c-167 -37 -397 -167 -650 -370 -120 -95 -265 -230 -265
-246 0 -5 4 -9 10 -9 5 0 40 -20 77 -46 117 -78 435 -224 489 -224 22 0 17 22
-26 112 -80 168 -80 319 0 485 47 95 106 154 202 201 117 57 202 76 308 69
199 -13 356 -109 434 -266 78 -153 84 -278 22 -443 -47 -124 -54 -158 -33
-158 31 0 164 54 289 116 128 64 288 161 288 175 0 10 -172 157 -305 261 -254
198 -475 318 -639 347 -76 14 -126 13 -201 -4z m-575 -399 c0 -2 -7 -7 -16
-10 -8 -3 -12 -2 -9 4 6 10 25 14 25 6z m107 -28 c-3 -8 -6 -5 -6 6 -1 11 2
17 5 13 3 -3 4 -12 1 -19z m-224 -48 c-5 -19 -33 -49 -33 -36 0 7 31 56 35 56
2 0 1 -9 -2 -20z m184 -32 c-3 -7 -5 -2 -5 12 0 14 2 19 5 13 2 -7 2 -19 0
-25z m1212 -62 c-5 -6 -9 7 -8 35 l1 44 8 -35 c5 -20 5 -39 -1 -44z m-1182 32
c-3 -8 -6 -5 -6 6 -1 11 2 17 5 13 3 -3 4 -12 1 -19z m1223 12 c0 -5 -4 -10
-10 -10 -5 0 -10 5 -10 10 0 6 5 10 10 10 6 0 10 -4 10 -10z m-1143 -312 c-3
-8 -6 -5 -6 6 -1 11 2 17 5 13 3 -3 4 -12 1 -19z"/>
<path d="M4318 5068 c6 -6 18 -8 28 -6 14 3 12 5 -9 10 -19 3 -25 2 -19 -4z"/>
<path d="M4218 5053 c7 -3 16 -2 19 1 4 3 -2 6 -13 5 -11 0 -14 -3 -6 -6z"/>
<path d="M4285 5050 c3 -5 8 -10 11 -10 2 0 4 5 4 10 0 6 -5 10 -11 10 -5 0
-7 -4 -4 -10z"/>
<path d="M3798 4963 c7 -3 16 -2 19 1 4 3 -2 6 -13 5 -11 0 -14 -3 -6 -6z"/>
<path d="M3675 4890 c-16 -11 -25 -20 -19 -20 11 0 64 39 54 40 -3 0 -18 -9
-35 -20z"/>
<path d="M3557 4773 c-11 -13 -17 -27 -14 -30 3 -2 13 7 23 21 22 34 15 42 -9
9z"/>
<path d="M3573 4746 c-7 -13 -17 -17 -31 -14 -15 4 -23 -1 -31 -21 -10 -24
-10 -24 3 -7 8 10 21 16 28 13 18 -6 51 18 46 35 -3 9 -8 7 -15 -6z"/>
<path d="M3480 4665 c-7 -9 -10 -18 -7 -21 3 -3 10 4 17 15 13 25 8 27 -10 6z"/>
<path d="M7178 5063 c7 -3 16 -2 19 1 4 3 -2 6 -13 5 -11 0 -14 -3 -6 -6z"/>
<path d="M7540 5016 c0 -9 5 -16 10 -16 6 0 10 4 10 9 0 6 -4 13 -10 16 -5 3
-10 -1 -10 -9z"/>
<path d="M7598 5003 c6 -2 18 -2 25 0 6 3 1 5 -13 5 -14 0 -19 -2 -12 -5z"/>
<path d="M8171 4354 c0 -11 3 -14 6 -6 3 7 2 16 -1 19 -3 4 -6 -2 -5 -13z"/>
<path d="M8187 4323 c-6 -11 12 -57 19 -50 3 3 1 14 -5 25 -6 11 -7 22 -4 26
3 3 4 6 0 6 -3 0 -8 -3 -10 -7z"/>
<path d="M8791 4839 c0 -19 4 -43 9 -54 6 -13 7 -2 3 30 -7 59 -13 72 -12 24z"/>
<path d="M7140 4475 c0 -3 11 -17 25 -31 l25 -25 0 31 c0 25 -4 30 -25 30 -14
0 -25 -2 -25 -5z"/>
<path d="M7140 4240 c0 -11 6 -20 14 -20 21 0 31 21 15 31 -22 14 -29 11 -29
-11z"/>
<path d="M4419 4313 c-13 -16 -12 -17 4 -4 16 13 21 21 13 21 -2 0 -10 -8 -17
-17z"/>
<path d="M2405 4391 c-3 -5 -1 -12 5 -16 5 -3 10 1 10 9 0 18 -6 21 -15 7z"/>
<path d="M2575 4090 c-3 -5 1 -10 10 -10 9 0 13 5 10 10 -3 6 -8 10 -10 10 -2
0 -7 -4 -10 -10z"/>
<path d="M2640 3785 c0 -20 5 -25 25 -25 22 0 24 3 16 19 -17 31 -41 34 -41 6z"/>
<path d="M2722 3760 c0 -14 2 -19 5 -12 2 6 2 18 0 25 -3 6 -5 1 -5 -13z"/>
<path d="M2493 4433 c9 -2 25 -2 35 0 9 3 1 5 -18 5 -19 0 -27 -2 -17 -5z"/>
<path d="M3342 4270 c0 -14 2 -19 5 -12 2 6 2 18 0 25 -3 6 -5 1 -5 -13z"/>
<path d="M3271 4034 c0 -11 3 -14 6 -6 3 7 2 16 -1 19 -3 4 -6 -2 -5 -13z"/>
<path d="M3080 3611 c-20 -39 -11 -84 25 -130 19 -24 35 -45 35 -48 0 -12
-156 -314 -177 -341 -13 -17 -37 -39 -54 -47 -35 -18 -38 -41 -6 -48 12 -3 60
-22 107 -42 47 -20 93 -39 103 -42 25 -8 21 19 -8 53 -14 16 -25 37 -25 46 0
19 171 371 177 365 2 -2 -1 -96 -7 -208 -14 -299 -13 -359 5 -359 9 0 19 8 23
19 4 10 94 108 201 217 106 110 190 190 186 179 -45 -124 -138 -362 -150 -385
-11 -21 -27 -32 -56 -40 -72 -20 -55 -31 135 -90 136 -41 138 -41 80 25 -27
31 -34 46 -30 67 9 48 164 410 180 420 6 4 23 8 37 8 27 0 69 33 69 54 0 20
-16 30 -130 80 -58 26 -113 51 -122 56 -32 18 -47 10 -95 -53 -134 -175 -207
-267 -212 -267 -3 0 -6 93 -6 206 l0 207 -110 58 c-117 62 -158 72 -175 40z"/>
<path d="M8200 3560 c-47 -17 -130 -44 -185 -60 -55 -17 -105 -36 -112 -43
-16 -17 -46 -248 -33 -261 6 -6 23 -6 47 0 40 10 50 28 52 95 2 54 20 72 75
73 l47 1 34 -95 c18 -52 54 -153 79 -223 50 -140 54 -163 30 -208 -8 -17 -13
-33 -10 -36 3 -3 69 23 148 58 96 43 144 70 146 82 3 14 -4 17 -35 17 -74 0
-82 14 -193 338 -28 84 -49 156 -46 159 3 4 30 8 59 11 50 4 54 2 102 -42 27
-25 56 -46 63 -46 15 0 72 53 72 67 0 9 -21 23 -100 66 -30 17 -72 41 -92 54
-21 13 -43 23 -50 23 -7 0 -51 -14 -98 -30z"/>
<path d="M7488 3328 c-9 -7 -17 -22 -18 -33 -5 -49 -2 -52 60 -59 58 -7 60 -8
60 -36 0 -21 -30 -74 -101 -180 -56 -82 -105 -150 -110 -150 -5 0 -11 12 -14
28 -4 15 -22 74 -41 132 -19 58 -36 110 -37 115 -1 6 12 11 30 13 21 2 34 10
38 23 7 21 -3 79 -13 79 -21 0 -175 -33 -219 -46 -53 -17 -57 -21 -53 -59 4
-38 19 -45 76 -39 52 6 54 6 54 -16 0 -13 4 -37 10 -54 17 -53 99 -401 95
-404 -2 -2 -22 -6 -45 -9 -47 -7 -58 -23 -41 -60 11 -23 15 -24 64 -18 120 15
219 38 225 53 4 11 -12 31 -48 63 l-53 46 24 40 c34 55 221 293 231 293 4 0 8
-17 8 -38 0 -21 7 -90 15 -153 14 -106 14 -115 -2 -126 -9 -7 -23 -13 -30 -13
-16 0 -32 -38 -25 -62 2 -9 12 -20 21 -22 17 -5 258 17 264 25 13 14 14 58 4
79 -9 18 -23 26 -51 30 l-38 5 -30 115 c-43 167 -78 329 -78 361 0 21 5 28 23
31 31 4 36 43 5 52 -44 11 -243 7 -260 -6z"/>
<path d="M4120 3256 c-147 -41 -242 -190 -227 -354 9 -97 35 -174 76 -228 123
-163 387 -197 514 -66 66 68 119 208 133 352 6 63 4 73 -20 114 -85 145 -305
229 -476 182z m229 -125 c47 -25 89 -87 104 -156 9 -46 8 -63 -7 -112 -26 -82
-50 -127 -91 -166 -92 -90 -217 -62 -280 62 -33 66 -15 195 40 280 64 100 150
134 234 92z"/>
<path d="M4748 3160 c-12 -7 -18 -23 -18 -45 0 -27 5 -36 30 -47 16 -7 32 -18
34 -24 5 -12 -32 -451 -39 -471 -2 -8 -21 -13 -43 -13 -41 0 -62 -14 -62 -41
0 -30 27 -40 152 -54 68 -8 142 -17 166 -21 40 -6 42 -6 42 20 0 16 -14 41
-36 66 l-36 40 7 78 c4 43 10 85 15 92 6 10 35 11 134 5 l126 -7 0 -104 0
-104 -27 -6 c-59 -12 -73 -22 -73 -54 0 -16 4 -30 9 -30 5 0 78 -12 161 -26
165 -28 170 -28 170 27 0 21 -8 30 -40 44 l-40 18 2 246 3 246 49 7 c27 4 53
13 58 20 10 16 0 69 -16 84 -6 6 -67 19 -136 28 -68 10 -137 20 -152 23 -28 5
-28 5 -28 -46 0 -40 5 -56 23 -73 19 -20 22 -33 22 -102 l0 -79 -104 2 c-58 1
-109 4 -113 7 -4 3 -8 48 -8 100 l0 94 29 0 c24 0 31 6 40 31 22 65 22 65
-164 74 -78 3 -126 2 -137 -5z"/>
<path d="M6657 3160 c-169 -548 -188 -602 -230 -643 -25 -26 -37 -46 -35 -60
3 -20 10 -22 83 -25 148 -6 185 9 164 66 -6 16 -17 22 -39 22 -19 0 -30 5 -30
14 0 7 23 95 50 196 28 101 50 191 50 201 0 31 18 22 39 -18 10 -21 51 -90 90
-153 39 -63 71 -124 71 -135 0 -12 -16 -47 -35 -79 -31 -51 -43 -86 -31 -86
12 0 193 33 254 46 55 12 72 19 72 32 0 29 -28 60 -60 67 -42 9 -69 44 -223
290 -154 248 -183 288 -190 265z"/>
<path d="M5865 3119 c-111 -26 -231 -120 -293 -229 -27 -47 -32 -65 -32 -122
0 -121 52 -243 136 -317 88 -77 244 -103 361 -60 141 52 221 155 257 332 26
123 23 146 -28 214 -69 91 -157 151 -261 177 -66 18 -82 18 -140 5z m165 -174
c50 -49 70 -108 70 -207 0 -138 -58 -220 -168 -241 -100 -20 -195 106 -194
257 1 71 16 116 58 165 47 56 82 73 142 68 45 -3 58 -9 92 -42z"/>
<path d="M3575 3850 c-3 -5 1 -10 9 -10 9 0 16 5 16 10 0 6 -4 10 -9 10 -6 0
-13 -4 -16 -10z"/>
<path d="M3658 3833 c7 -3 16 -2 19 1 4 3 -2 6 -13 5 -11 0 -14 -3 -6 -6z"/>
<path d="M3768 3833 c7 -3 16 -2 19 1 4 3 -2 6 -13 5 -11 0 -14 -3 -6 -6z"/>
<path d="M3808 3833 c6 -2 18 -2 25 0 6 3 1 5 -13 5 -14 0 -19 -2 -12 -5z"/>
<path d="M7850 3820 c-11 -8 -7 -9 15 -4 37 8 45 14 19 14 -10 0 -26 -5 -34
-10z"/>
<path d="M3848 3813 c7 -3 16 -2 19 1 4 3 -2 6 -13 5 -11 0 -14 -3 -6 -6z"/>
<path d="M3965 3790 c3 -5 13 -10 21 -10 8 0 14 5 14 10 0 6 -9 10 -21 10 -11
0 -17 -4 -14 -10z"/>
<path d="M5558 3763 c6 -2 18 -2 25 0 6 3 1 5 -13 5 -14 0 -19 -2 -12 -5z"/>
<path d="M4125 3750 c72 -12 115 -11 115 0 0 6 -33 9 -82 9 -78 -2 -80 -2 -33
-9z"/>
<path d="M3898 3723 c7 -3 16 -2 19 1 4 3 -2 6 -13 5 -11 0 -14 -3 -6 -6z"/>
<path d="M5436 3704 c-9 -24 -9 -24 39 -24 38 0 45 3 45 20 0 17 -7 20 -39 20
-26 0 -41 -5 -45 -16z"/>
<path d="M4480 3675 c0 -17 9 -19 28 -6 11 7 10 10 -3 15 -23 9 -25 8 -25 -9z"/>
<path d="M4238 3673 c7 -3 16 -2 19 1 4 3 -2 6 -13 5 -11 0 -14 -3 -6 -6z"/>
<path d="M4565 3670 c3 -5 13 -10 21 -10 8 0 12 5 9 10 -3 6 -13 10 -21 10 -8
0 -12 -4 -9 -10z"/>
<path d="M4803 3660 c-4 -16 -14 -20 -44 -20 -47 0 -53 -19 -6 -21 79 -3 203
4 212 12 5 6 5 9 -2 9 -6 0 -9 9 -6 20 5 19 0 20 -72 20 -68 0 -77 -2 -82 -20z"/>
<path d="M6640 3670 c0 -5 18 -10 40 -10 29 0 40 -4 40 -15 0 -12 16 -15 80
-15 47 0 80 4 80 10 0 6 26 10 58 11 31 0 50 3 42 6 -8 2 -25 10 -38 16 -18 8
-28 8 -42 -1 -24 -15 -180 -16 -180 -2 0 6 -18 10 -40 10 -22 0 -40 -4 -40
-10z"/>
<path d="M7250 3670 c0 -5 11 -10 24 -10 13 0 33 -2 43 -5 10 -3 5 1 -12 9
-36 18 -55 20 -55 6z"/>
<path d="M7349 3667 c6 -8 8 -16 5 -20 -3 -3 5 -3 18 1 18 5 19 7 5 10 -9 2
-15 8 -12 13 4 5 -1 9 -11 9 -13 0 -14 -3 -5 -13z"/>
<path d="M7131 3661 c-10 -6 -10 -10 -1 -16 13 -8 24 -1 19 14 -3 6 -10 7 -18
2z"/>
<path d="M7413 3663 c9 -2 25 -2 35 0 9 3 1 5 -18 5 -19 0 -27 -2 -17 -5z"/>
<path d="M7008 3653 c6 -2 18 -2 25 0 6 3 1 5 -13 5 -14 0 -19 -2 -12 -5z"/>
<path d="M4480 3586 c4 -4 16 -4 26 2 16 9 14 10 -8 9 -15 -1 -23 -6 -18 -11z"/>
<path d="M6895 3590 c3 -5 1 -10 -6 -10 -7 0 -10 -3 -6 -6 3 -3 15 -3 28 1 17
6 19 9 8 16 -19 12 -32 11 -24 -1z"/>
<path d="M6820 3560 c0 -5 4 -10 9 -10 6 0 13 5 16 10 3 6 -1 10 -9 10 -9 0
-16 -4 -16 -10z"/>
<path d="M6903 3553 c9 -2 23 -2 30 0 6 3 -1 5 -18 5 -16 0 -22 -2 -12 -5z"/>
<path d="M6378 3513 c6 -2 18 -2 25 0 6 3 1 5 -13 5 -14 0 -19 -2 -12 -5z"/>
<path d="M6558 3508 c5 -5 16 -8 23 -6 8 3 3 7 -10 11 -17 4 -21 3 -13 -5z"/>
<path d="M6310 3500 c8 -5 26 -10 39 -10 32 0 24 6 -19 14 -25 4 -31 3 -20 -4z"/>
<path d="M6008 3493 c6 -2 18 -2 25 0 6 3 1 5 -13 5 -14 0 -19 -2 -12 -5z"/>
<path d="M6408 3493 c6 -2 18 -2 25 0 6 3 1 5 -13 5 -14 0 -19 -2 -12 -5z"/>
<path d="M5288 3483 c7 -3 16 -2 19 1 4 3 -2 6 -13 5 -11 0 -14 -3 -6 -6z"/>
<path d="M5980 3476 c0 -2 7 -7 16 -10 8 -3 12 -2 9 4 -6 10 -25 14 -25 6z"/>
<path d="M6048 3473 c12 -2 32 -2 45 0 12 2 2 4 -23 4 -25 0 -35 -2 -22 -4z"/>
<path d="M7600 3710 c0 -5 7 -7 15 -4 8 4 15 8 15 10 0 2 -7 4 -15 4 -8 0 -15
-4 -15 -10z"/>
<path d="M3220 2289 c0 -12 25 -22 41 -17 6 2 0 9 -15 16 -16 7 -26 8 -26 1z"/>
<path d="M3714 2051 c3 -5 15 -11 26 -14 17 -4 19 -3 9 9 -12 15 -44 20 -35 5z"/>
<path d="M3836 1987 c10 -5 24 -5 36 0 17 7 14 9 -16 9 -27 0 -32 -2 -20 -9z"/>
<path d="M4155 1820 c3 -5 8 -10 11 -10 2 0 4 5 4 10 0 6 -5 10 -11 10 -5 0
-7 -4 -4 -10z"/>
<path d="M4510 1640 c0 -5 5 -10 11 -10 5 0 7 5 4 10 -3 6 -8 10 -11 10 -2 0
-4 -4 -4 -10z"/>
<path d="M6907 1594 c-8 -8 1 -24 13 -24 4 0 10 7 14 15 5 15 -14 21 -27 9z"/>
<path d="M4760 1470 c0 -5 5 -10 11 -10 5 0 7 5 4 10 -3 6 -8 10 -11 10 -2 0
-4 -4 -4 -10z"/>
<path d="M6728 1473 c6 -2 18 -2 25 0 6 3 1 5 -13 5 -14 0 -19 -2 -12 -5z"/>
<path d="M6645 1430 c-3 -5 -2 -10 4 -10 5 0 13 5 16 10 3 6 2 10 -4 10 -5 0
-13 -4 -16 -10z"/>
<path d="M4820 1421 c0 -9 30 -24 36 -18 2 1 -6 8 -16 15 -11 7 -20 8 -20 3z"/>
<path d="M6410 1263 c8 -3 7 -9 -1 -19 -10 -12 -9 -13 5 -8 18 7 17 26 -2 30
-7 1 -8 0 -2 -3z"/>
<path d="M5218 1183 c7 -3 16 -2 19 1 4 3 -2 6 -13 5 -11 0 -14 -3 -6 -6z"/>
<path d="M6185 1110 c-3 -6 1 -7 9 -4 18 7 21 14 7 14 -6 0 -13 -4 -16 -10z"/>
<path d="M5345 1100 c3 -5 8 -10 11 -10 2 0 4 5 4 10 0 6 -5 10 -11 10 -5 0
-7 -4 -4 -10z"/>
<path d="M6183 1074 l-28 -26 33 22 c29 20 39 30 28 30 -3 0 -18 -12 -33 -26z"/>
<path d="M5478 1028 c9 -9 15 -9 24 0 9 9 7 12 -12 12 -19 0 -21 -3 -12 -12z"/>
<path d="M5405 1020 c3 -5 8 -10 11 -10 2 0 4 5 4 10 0 6 -5 10 -11 10 -5 0
-7 -4 -4 -10z"/>
<path d="M5948 912 c-13 -16 -40 -42 -60 -58 -20 -15 -35 -30 -33 -32 5 -6
134 100 134 111 2 16 -19 6 -41 -21z"/>
<path d="M5555 920 c3 -5 8 -10 11 -10 2 0 4 5 4 10 0 6 -5 10 -11 10 -5 0 -7
-4 -4 -10z"/>
<path d="M5801 826 c-9 -11 -9 -16 0 -21 7 -5 2 -16 -17 -32 -16 -13 -20 -19
-9 -14 29 15 73 54 54 48 -13 -4 -15 -1 -12 14 6 23 0 24 -16 5z"/>
<path d="M6425 1950 c-3 -5 -2 -10 4 -10 5 0 13 5 16 10 3 6 2 10 -4 10 -5 0
-13 -4 -16 -10z"/>
<path d="M6290 1789 c0 -5 5 -7 10 -4 6 3 10 8 10 11 0 2 -4 4 -10 4 -5 0 -10
-5 -10 -11z"/>
<path d="M5280 1626 c0 -19 5 -24 20 -23 24 2 25 10 4 31 -21 21 -24 20 -24
-8z"/>
<path d="M5942 1535 c-7 -8 -9 -15 -4 -15 5 0 15 7 22 15 16 19 -1 19 -18 0z"/>
<path d="M5982 1534 c-7 -8 -8 -14 -3 -14 10 0 25 19 20 25 -2 1 -10 -3 -17
-11z"/>
<path d="M5440 1530 c0 -5 5 -10 11 -10 5 0 7 5 4 10 -3 6 -8 10 -11 10 -2 0
-4 -4 -4 -10z"/>
<path d="M5869 1458 c-12 -23 -12 -23 10 -4 23 21 26 26 11 26 -5 0 -15 -10
-21 -22z"/>
<path d="M5902 1454 c-7 -8 -8 -14 -3 -14 10 0 25 19 20 25 -2 1 -10 -3 -17
-11z"/>
<path d="M5686 1405 c4 -8 11 -15 16 -15 6 0 5 6 -2 15 -7 8 -14 15 -16 15 -2
0 -1 -7 2 -15z"/>
<path d="M5805 1390 c-3 -6 1 -7 9 -4 18 7 21 14 7 14 -6 0 -13 -4 -16 -10z"/>
<path d="M5725 1370 c3 -5 11 -10 16 -10 6 0 7 5 4 10 -3 6 -11 10 -16 10 -6
0 -7 -4 -4 -10z"/>
<path d="M5695 1360 c3 -5 8 -10 11 -10 2 0 4 5 4 10 0 6 -5 10 -11 10 -5 0
-7 -4 -4 -10z"/>
<path d="M7620 1970 c0 -5 5 -10 10 -10 6 0 10 5 10 10 0 6 -4 10 -10 10 -5 0
-10 -4 -10 -10z"/>
</g>
</svg>
